<?xml version="1.0" encoding="UTF-8"?>
<svg width="210mm" height="297mm" version="1.1" viewBox="0 0 210 297" xmlns="http://www.w3.org/2000/svg" xmlns:xlink="http://www.w3.org/1999/xlink">
 <defs>
  <linearGradient id="a">
   <stop stop-color="#fff" stop-opacity=".79646" offset="0"/>
   <stop stop-color="#fff" stop-opacity="0" offset="1"/>
  </linearGradient>
  <radialGradient id="f" cx="75.142" cy="175.03" r="38.488" gradientTransform="matrix(3.7795 0 0 3.7795 0 .00013113)" gradientUnits="userSpaceOnUse">
   <stop stop-color="#fff" stop-opacity=".43396" offset="0"/>
   <stop stop-color="#fff" stop-opacity=".29204" offset="1"/>
  </radialGradient>
  <radialGradient id="g" cx="77.725" cy="138.21" r="38.488" gradientTransform="matrix(-.064583 -.047458 .056221 -.076507 36.338 160.41)" gradientUnits="userSpaceOnUse" xlink:href="#a"/>
  <radialGradient id="h" cx="77.725" cy="138.21" r="38.488" gradientTransform="matrix(-.047955 -.035239 .041746 -.056809 36.721 148.87)" gradientUnits="userSpaceOnUse" xlink:href="#a"/>
  <radialGradient id="i" cx="77.725" cy="138.21" r="38.488" gradientTransform="matrix(-.027378 -.020119 .023834 -.032434 37.195 138.02)" gradientUnits="userSpaceOnUse" xlink:href="#a"/>
 </defs>
 <rect x="-134.24" y="31.234" width="376.8" height="188.4" fill="#439bff" style="paint-order:normal"/>
 <path d="m40.668 147.56a2.8415 2.9414 0 0 1 -2.8415 2.9413 2.8415 2.9414 0 0 1 -2.8415 -2.9413 2.8415 2.9414 0 0 1 2.8415 -2.9414 2.8415 2.9414 0 0 1 2.8415 2.9414z" fill="url(#g)" opacity=".808" stroke="#fff" stroke-linecap="square" stroke-linejoin="bevel" stroke-width=".49479" style="paint-order:normal"/>
 <path d="m39.936 139.33a2.1099 2.1841 0 0 1 -2.1099 2.184 2.1099 2.1841 0 0 1 -2.1099 -2.184 2.1099 2.1841 0 0 1 2.1099 -2.184 2.1099 2.1841 0 0 1 2.1099 2.184z" fill="url(#h)" opacity=".641" stroke="#fff" stroke-linecap="square" stroke-linejoin="bevel" stroke-width=".3674" style="paint-order:normal"/>
 <path d="m39.031 132.57a1.2046 1.2469 0 0 1 -1.2046 1.2469 1.2046 1.2469 0 0 1 -1.2046 -1.2469 1.2046 1.2469 0 0 1 1.2046 -1.2469 1.2046 1.2469 0 0 1 1.2046 1.2469z" fill="url(#i)" opacity=".651" stroke="#fff" stroke-linecap="square" stroke-linejoin="bevel" stroke-width=".20976" style="paint-order:normal"/>
 <path transform="scale(.26458)" d="m305.07 560.65c-1.5924-4e-3 -3.2063 0.0244-4.8418 0.082-26.509 0.93462-62.179 11.258-76.65 14.539-1.6005 0.36291-3.3631 0.74886-5.25 1.1504-18.208 3.8746-55.95 11.402-85.188 9.0801-13.907-1.1046-25.869-4.2038-36.156-9.4746-2.0841-1.0678-4.0313-2.2025-5.8789-3.3789a127.99 127.99 0 0 0 -0.09375 1.8672 127.99 127.99 0 0 0 127.99 127.99 127.99 127.99 0 0 0 127.99 -127.99 127.99 127.99 0 0 0 -0.11133 -3.125c-3.4083-2.1464-7.2094-4.0879-11.449-5.6934-9.1117-3.4503-19.207-5.018-30.354-5.0469z" fill="#18ff34" style="paint-order:normal"/>
 <path transform="scale(.26458)" d="m289.37 552.95c-26.366-0.1805-55.879 5.6311-68.902 8.584-1.6147 0.36623-3.3597 0.77803-5.2422 1.2344-18.027 4.3702-54.419 15.086-81.908 15.955-13.2 0.41715-24.888-1.152-35.236-5.123-4.6139-1.7705-8.7013-3.937-12.332-6.332l-1.2363 0.64063c3.595 2.9102 7.7081 5.6828 12.479 8.127 10.288 5.2708 22.249 8.37 36.156 9.4746 29.238 2.3221 66.979-5.2055 85.188-9.0801 1.8869-0.40154 3.6495-0.78748 5.25-1.1504 14.472-3.2814 50.142-13.604 76.65-14.539 13.084-0.46129 24.782 1.0216 35.195 4.9648 13.054 4.9431 22.008 13.039 27.828 20.664-5.6698-7.6756-13.763-16.652-26.641-23.316-10.353-5.3578-22.356-8.4881-36.199-9.6328-3.5809-0.29612-7.2822-0.44492-11.049-0.47071zm73.889 33.42c0.38963 0.52748 0.80079 1.0662 1.168 1.5801-0.37406-0.52348-0.76402-1.0508-1.168-1.5801z" fill="#f7f7f7"/>
 <path transform="scale(.26458)" d="m173.51 250.49v197.99h0.39258a134 134 0 0 0 -88.904 126.04 134 134 0 0 0 134 134 134 134 0 0 0 134 -134 134 134 0 0 0 -88.998 -126.04h0.48633v-197.99h-90.977z" fill="url(#f)" stroke="#fff" stroke-linecap="round" stroke-linejoin="round" stroke-width="22.934" style="paint-order:normal"/>
 <path d="m35.908 63.248a2.9552 3.0305 0 0 0 -0.58594 0.0701 2.9552 3.0305 0 0 0 -0.28516 0.07812 2.9552 3.0305 0 0 0 -0.27539 0.10816 2.9552 3.0305 0 0 0 -0.96094 0.693 2.9552 3.0305 0 0 0 -0.19141 0.23033 2.9552 3.0305 0 0 0 -0.42774 0.79315 2.9552 3.0305 0 0 0 -0.18359 1.1897 2.9552 3.0305 0 0 0 0.02734 0.30044 2.9552 3.0305 0 0 0 0.14258 0.58685 2.9552 3.0305 0 0 0 0.25195 0.54679 2.9552 3.0305 0 0 0 0.35352 0.4847 2.9552 3.0305 0 0 0 0.21094 0.21231 2.9552 3.0305 0 0 0 0.74023 0.49472 2.9552 3.0305 0 0 0 0.55859 0.19428 2.9552 3.0305 0 0 0 0.29102 0.05408 2.9552 3.0305 0 0 0 0.33398 0.02403h44.078a2.9552 3.0305 0 0 0 0.29492 -0.02002 2.9552 3.0305 0 0 0 0.29102 -0.05007 2.9552 3.0305 0 0 0 1.0762 -0.4827 2.9552 3.0305 0 0 0 0.44531 -0.39658 2.9552 3.0305 0 0 0 0.19141 -0.23033 2.9552 3.0305 0 0 0 0.3125 -0.51475 2.9552 3.0305 0 0 0 0.11523 -0.2784 2.9552 3.0305 0 0 0 0.15039 -0.58485 2.9552 3.0305 0 0 0 0.0332 -0.60488 2.9552 3.0305 0 0 0 -0.42188 -1.4341 2.9552 3.0305 0 0 0 -0.35352 -0.4847 2.9552 3.0305 0 0 0 -0.21094 -0.21231 2.9552 3.0305 0 0 0 -0.23047 -0.19028 2.9552 3.0305 0 0 0 -0.24805 -0.16424 2.9552 3.0305 0 0 0 -0.26172 -0.1402 2.9552 3.0305 0 0 0 -0.55859 -0.19428 2.9552 3.0305 0 0 0 -0.29102 -0.05407 2.9552 3.0305 0 0 0 -0.33398 -0.02404z" color="#000000" color-rendering="auto" dominant-baseline="auto" fill="#fff" image-rendering="auto" shape-rendering="auto" solid-color="#000000" style="font-feature-settings:normal;font-variant-alternates:normal;font-variant-caps:normal;font-variant-ligatures:normal;font-variant-numeric:normal;font-variant-position:normal;isolation:auto;mix-blend-mode:normal;shape-padding:0;text-decoration-color:#000000;text-decoration-line:none;text-decoration-style:solid;text-indent:0;text-orientation:mixed;text-transform:none;white-space:normal"/>
</svg>
