<?xml version="1.0" standalone="no"?><!DOCTYPE svg PUBLIC "-//W3C//DTD SVG 1.1//EN" "http://www.w3.org/Graphics/SVG/1.1/DTD/svg11.dtd"><svg t="1606652193804" class="icon" viewBox="0 0 1024 1024" version="1.1" xmlns="http://www.w3.org/2000/svg" p-id="5076" xmlns:xlink="http://www.w3.org/1999/xlink" width="200" height="200"><defs><style type="text/css"></style></defs><path d="M733.45024 191.8976h-442.368c-215.26528 0-215.23456 640.1024 0 640.1024h442.368c214.29248 0 214.29248-640.1024 0-640.1024m-317.2352 320a32 32 0 1 1-63.98976 0v-128a32 32 0 0 1 63.98976 0v128z m159.97952 224.0512h-128v-31.9488a64 64 0 1 1 128 0v31.9488z m95.97952-224.0512a32 32 0 1 1-63.98976 0v-128a32 32 0 0 1 63.98976 0v128z" p-id="5077" fill="#707070"></path></svg>