<?xml version="1.0" standalone="no"?><!DOCTYPE svg PUBLIC "-//W3C//DTD SVG 1.1//EN" "http://www.w3.org/Graphics/SVG/1.1/DTD/svg11.dtd"><svg t="1603635263100" class="icon" viewBox="0 0 1024 1024" version="1.1" xmlns="http://www.w3.org/2000/svg" p-id="8106" xmlns:xlink="http://www.w3.org/1999/xlink" width="200" height="200"><defs><style type="text/css"></style></defs><path d="M332.4416 783.22688a13.51168 13.51168 0 1 0 13.51168-13.55264 13.54752 13.54752 0 0 0-13.51168 13.55264z m419.14368-630.96832C747.94496 149.38624 660.76672 81.92 512.46592 81.92c-147.76832 0-239.9232 66.90816-243.77344 69.75488l-12.44672 9.216v251.0336a253.51168 253.51168 0 1 0 507.02336 0V161.47968zM455.48032 190.5152h26.368v-26.4448a30.6176 30.6176 0 1 1 61.2352 0v26.4448h26.37312a30.72 30.72 0 0 1 0 61.4144h-26.37312v26.4448a30.6176 30.6176 0 1 1-61.2352 0V251.904h-26.368a30.72 30.72 0 0 1 0-61.3888z m258.86208 219.68896a30.5408 30.5408 0 0 1-40.448 15.5392 401.95584 401.95584 0 0 0-164.15232-32.768 402.06336 402.06336 0 0 0-164.03968 32.6912 30.68928 30.68928 0 0 1-24.91904-56.09984 463.51872 463.51872 0 0 1 188.95872-38.00576 463.36 463.36 0 0 1 189.1072 38.10304 30.72 30.72 0 0 1 15.49312 40.54016z m26.9312 214.64576a329.60512 329.60512 0 0 1-54.02112 46.99648 190.52032 190.52032 0 0 1 6.656 43.008 75.03872 75.03872 0 0 1 44.30336 68.39808v43.7248a30.6176 30.6176 0 1 1-61.2352 0v-43.7248a13.51168 13.51168 0 1 0-27.02336 0v43.7248a30.62272 30.62272 0 1 1-61.24032 0v-43.7248a75.008 75.008 0 0 1 43.79648-68.1472c-0.2304-4.096-0.68608-8.192-1.29536-12.20096a308.93056 308.93056 0 0 1-252.38528-3.79904 128.32768 128.32768 0 0 0-2.048 15.94368 74.752 74.752 0 1 1-61.2608-0.2048 189.73184 189.73184 0 0 1 8.37632-48.27136 330.53184 330.53184 0 0 1-45.1072-40.00768A273.62816 273.62816 0 0 0 112.64 878.08 64 64 0 0 0 176.47104 942.08h671.05792A64 64 0 0 0 911.36 878.08a273.68448 273.68448 0 0 0-170.0864-253.2352z" fill="#2D79D6" p-id="8107"></path></svg>