<?xml version="1.0" standalone="no"?><!DOCTYPE svg PUBLIC "-//W3C//DTD SVG 1.1//EN" "http://www.w3.org/Graphics/SVG/1.1/DTD/svg11.dtd"><svg t="1603635287157" class="icon" viewBox="0 0 1024 1024" version="1.1" xmlns="http://www.w3.org/2000/svg" p-id="9090" xmlns:xlink="http://www.w3.org/1999/xlink" width="200" height="200"><defs><style type="text/css"></style></defs><path d="M741.75488 629.248c48.69632-32.31232 52.17792-77.11744 47.104-116.93568s-27.78112-128.8448-35.59936-158.8736c8.23296-19.6864 27.28448-64.9472 35.9936-83.15904l4.096-8.54528-1.50016-9.3184c-4.39808-27.28448-21.77536-52.8896-35.57376-69.56544a256.5888 256.5888 0 0 0-107.24864-74.752C508.416 54.784 346.44992 92.1088 287.10912 138.5216 222.0288 183.7568 210.52416 240.128 214.016 266.37824l0.64512 4.84864 39.18336 80.54784c-9.87136 34.47296-38.00064 137.90208-40.04864 204.1344-1.19296 38.51264 21.67296 64.78336 53.15584 82.17088A267.264 267.264 0 0 0 112.64 878.81728 64 64 0 0 0 177.2032 942.08h669.5936A64 64 0 0 0 911.36 878.81728c0-107.61728-71.68-205.43488-169.60512-249.56928zM284.07296 495.65184c51.24608-18.944 177.49504-68.51584 275.40992-130.82112 41.3696 41.14432 95.03232 93.22496 156.98944 102.69184 4.5824 20.60288 8.40192 39.68512 10.03008 52.43904 4.21376 33.02912 8.99072 70.46656-114.93376 86.61504l-11.57632 1.536-7.7568 8.5504c-24.18688 26.624-103.424 62.9248-181.4528-2.87744l-8.41728-7.0656-11.04384-0.36864c-36.352-1.22368-115.75296-15.14496-114.71872-48.55296a447.79008 447.79008 0 0 1 7.47008-62.14656z m40.02304-307.3536l1.77152-1.31072c40.15104-32.03072 178.72384-67.62496 300.45184-21.44768a193.76128 193.76128 0 0 1 81.12128 56.09984 120.69376 120.69376 0 0 1 20.19328 32.68096c-13.312 29.50144-35.46112 82.78016-36.51584 85.31968l-3.92192 9.45664 2.62144 9.88672c0.11776 0.4352 4.4288 16.72704 10.09152 39.24992-35.16416-16.41984-70.656-51.712-98.816-79.73376a58.42944 58.42944 0 0 0-72.45312-7.48544c-73.7792 47.54944-168.576 88.51968-228.93568 112.44544C308.86912 386.4576 317.27616 358.3488 317.44 357.74976l3.4048-11.3152-44.43648-91.38176c0.75776-9.63584 6.62528-38.4768 47.68768-66.75456z m522.69056 692.224H177.2032a1.71008 1.71008 0 0 1-1.72544-1.6896c0-113.43872 94.208-205.73184 209.96096-205.73184v-0.512a203.49952 203.49952 0 0 0 119.58272 39.76704c51.50208 0 97.28-20.32128 125.62944-46.25408 116.29568 1.15712 217.86624 100.03968 217.86624 212.72064a1.71008 1.71008 0 0 1-1.72032 1.68448z" fill="#2D79D6" p-id="9091"></path><path d="M579.8144 199.27552h-36.352v-35.67616H480.54272v35.67616h-36.352v61.73696h36.352v35.67616h62.91456v-35.67616h36.352V199.27552z" fill="#2D79D6" p-id="9092"></path></svg>