<?xml version="1.0" standalone="no"?><!DOCTYPE svg PUBLIC "-//W3C//DTD SVG 1.1//EN" "http://www.w3.org/Graphics/SVG/1.1/DTD/svg11.dtd"><svg t="1606918636448" class="icon" viewBox="0 0 1024 1024" version="1.1" xmlns="http://www.w3.org/2000/svg" p-id="4540" xmlns:xlink="http://www.w3.org/1999/xlink" width="200" height="200"><defs><style type="text/css"></style></defs><path d="M512 65C264.66 65 65 264.66 65 512s199.66 447 447 447 447-199.66 447-447S759.34 65 512 65z m253.32 470.93h-0.8c-18.93 0.42-37.92 0-56.85 0H312.21l88.31 86.91 64.68 63.66c9.53 9.38 8.71 24.35 0 33.84s-24.91 8.79-33.84 0L407.69 697l-103.1-101.43-64.69-63.66c-9.28-9.14-9-24.69 0-33.84l23.52-23.88 103.15-104.74 64.79-65.79c9.38-9.53 24.35-8.71 33.84 0s8.79 24.91 0 33.84l-23.52 23.88q-51.57 52.38-103.15 104.74l-21.44 21.77c12.44 0 24.88 0.18 37.3 0.18h410.93c13.41 0 23.35 11 23.93 23.93s-11.41 23.93-23.93 23.93z" p-id="4541" fill="#707070"></path></svg>