<?xml version="1.0" encoding="utf-8"?>
<!-- Generator: Adobe Illustrator 21.0.0, SVG Export Plug-In . SVG Version: 6.00 Build 0)  -->
<svg version="1.1" xmlns="http://www.w3.org/2000/svg" xmlns:xlink="http://www.w3.org/1999/xlink" x="0px" y="0px"
	 viewBox="0 0 500 500" style="enable-background:new 0 0 500 500;" xml:space="preserve">
<style type="text/css">
	.st0{fill:#D3F4FF;}
	.st1{fill:#ADE3F8;}
	.st2{fill:#F1956C;}
	.st3{fill:#B46D4F;}
	.st4{fill:#FFC55C;}
	.st5{clip-path:url(#SVGID_2_);}
	.st6{fill:#BF953F;}
	.st7{fill:#ED795A;}
	.st8{clip-path:url(#SVGID_4_);}
	.st9{fill:none;stroke:#333333;stroke-width:0.5;stroke-miterlimit:10;}
	.st10{fill:#FFFFFF;}
	.st11{fill:#653726;}
	.st12{fill:#542D21;}
	.st13{fill:#A553A5;}
	.st14{fill:#734772;}
	.st15{fill:#CCCCCC;}
	.st16{fill:#333333;}
	.st17{fill:#599DB7;}
	.st18{fill:#E7A4E4;}
	.st19{fill:#76D1F4;}
	.st20{fill:#5A3728;}
	.st21{fill:#FFDC9D;}
	.st22{fill:#AF5341;}
	.st23{fill:#87523B;}
	.st24{fill:#B4613E;}
	.st25{fill:#E6E6E6;}
	.st26{clip-path:url(#SVGID_6_);}
	.st27{fill:#B3B3B3;}
</style>
<g id="BACKGROUND">
	<rect class="st0" width="500" height="500"/>
</g>
<g id="OBJECTS">
	<g>
		<circle class="st1" cx="345.5" cy="135.8" r="74.5"/>
		<path class="st2" d="M317.9,81.5c0,0-2.3-2.6-3.9-1c-1.6,1.7-0.3,6.8,4.4,7l0.8-2.1L317.9,81.5z"/>
		<path class="st3" d="M317.6,83.6c0,0-2.2-2-2.6-0.7c-0.4,1.3,1.4,2.7,2.6,2.7V83.6z"/>
		<path class="st4" d="M355.8,89.1c0,0,5.2-4,6.1-11.9c0.8-7.9-1.3-14.2-2.7-16.9c-1.5-2.7-5.2-9.2-11.7-8.8
			c-6.5,0.4-1.9,21.1-1.9,21.1L355.8,89.1z"/>
		<g>
			<defs>
				<path id="SVGID_1_" d="M355.8,89.1c0,0,5.2-4,6.1-11.9c0.8-7.9-1.3-14.2-2.7-16.9c-1.5-2.7-5.2-9.2-11.7-8.8
					c-6.5,0.4-1.9,21.1-1.9,21.1L355.8,89.1z"/>
			</defs>
			<clipPath id="SVGID_2_">
				<use xlink:href="#SVGID_1_"  style="overflow:visible;"/>
			</clipPath>
			<g class="st5">
				<path class="st6" d="M360.3,83.8C359.5,62.4,348,55,347.8,54.9l0.6-0.9c0.5,0.3,12.1,7.7,13,29.8L360.3,83.8z"/>
				<path class="st6" d="M358,90l-1.1-0.1c1.2-20-9.1-28.1-9.2-28.2l0.6-0.8C348.9,61.2,359.3,69.5,358,90z"/>
			</g>
		</g>
		<path class="st2" d="M355.8,89.1c0,0,2.1,10.6,2.1,12.1s-8.1,7.9-8.1,7.9l-17.3,2.5l-5-2.1l-2.3-2.7l-0.8-4.2L355.8,89.1z"/>
		<path class="st2" d="M315.8,73.1c0,0,2.1,14.2,1.9,16.9c-0.2,2.7,5,8.1,6.3,8.6c1.3,0.4,20.7-1,20.7-1l10.2-11.9l0.4-1.5
			c0,0,5.8-2.3,4.6-6.7c-1.3-4.4-6.7-1.3-6.7-1.3s-1.7,0.4-1.7-0.4c0-0.8-0.8-6.9-3.8-10.4C344.8,61.8,315.8,73.1,315.8,73.1z"/>
		<path class="st7" d="M324.7,92.1c0-1.6-2.2-2.9-5-2.9c-0.8,0-1.5,0.1-2.1,0.3c0,0.2,0,0.4,0,0.5c-0.1,1.3,1.1,3.3,2.5,5
			C322.7,94.9,324.7,93.6,324.7,92.1z"/>
		<ellipse transform="matrix(0.9862 -0.1657 0.1657 0.9862 -10.1995 58.1222)" class="st7" cx="343.2" cy="90.2" rx="5" ry="2.9"/>
		<path class="st4" d="M347.5,51.6c0,0-0.2-2.5-2.5-2.3c-2.3,0.2-6.7,2.5-10,1.7c-3.3-0.8-7.9-1-13.4,3.5c-5.4,4.6-9,12.1-7.9,15.9
			s6.5,6.1,15.4,5.6c9-0.4,18-5.2,19.4-11.3C350,58.7,348.3,52.2,347.5,51.6z"/>
		<g>
			<defs>
				<path id="SVGID_3_" d="M347.5,51.6c0,0-0.2-2.5-2.5-2.3c-2.3,0.2-6.7,2.5-10,1.7c-3.3-0.8-7.9-1-13.4,3.5
					c-5.4,4.6-9,12.1-7.9,15.9s6.5,6.1,15.4,5.6c9-0.4,18-5.2,19.4-11.3C350,58.7,348.3,52.2,347.5,51.6z"/>
			</defs>
			<clipPath id="SVGID_4_">
				<use xlink:href="#SVGID_3_"  style="overflow:visible;"/>
			</clipPath>
			<g class="st8">
				<path class="st6" d="M328.2,72.7c-4.1,0-6.5-1.6-8.3-2.8c-0.4-0.3-0.7-0.5-1.1-0.7c-2.2-1.3-6.4,0.6-6.4,0.6
					c-0.3,0.1-0.6,0-0.7-0.3c-0.1-0.3,0-0.6,0.2-0.7c0.2-0.1,4.7-2.2,7.4-0.6c0.4,0.2,0.7,0.5,1.1,0.7c2.4,1.6,6.1,4.1,14.1,1.5
					c9-2.9,13.6-9.4,14.3-12c0.1-0.3,0.4-0.4,0.6-0.4c0.3,0.1,0.4,0.4,0.4,0.6c-0.8,2.8-5.4,9.6-15,12.7
					C332.3,72.3,330,72.7,328.2,72.7z"/>
				<path class="st6" d="M329.9,68.6c-2.9,0-4.9-1.1-7.1-2.4c-0.5-0.3-1.1-0.6-1.6-0.9c-3.8-2.1-8.7,2-8.8,2
					c-0.2,0.2-0.6,0.2-0.7-0.1c-0.2-0.2-0.2-0.6,0.1-0.7c0.2-0.2,5.5-4.6,10-2.1c0.6,0.3,1.1,0.6,1.7,0.9c3.2,1.9,5.3,3.1,10.5,1.7
					c6.3-1.7,14.9-9.5,15.3-10.7c0.1-0.3,0.4-0.4,0.7-0.4c0.3,0.1,0.4,0.4,0.4,0.7c-0.5,1.8-9.7,9.7-16,11.4
					C332.4,68.4,331.1,68.6,329.9,68.6z"/>
				<path class="st6" d="M312.8,64c-0.1,0-0.3-0.1-0.4-0.2c-0.2-0.2-0.2-0.5,0-0.7c0.2-0.2,4.9-4.4,9.9-2.6c5,1.7,9.9,3,15.9-0.2
					c5.5-2.9,8.9-6.5,9.1-9.6c0-0.3,0.3-0.5,0.6-0.5c0.3,0,0.5,0.3,0.5,0.6c-0.2,3.5-3.8,7.3-9.7,10.4c-6.3,3.4-11.7,2-16.7,0.2
					c-4.4-1.5-8.8,2.4-8.9,2.4C313.1,63.9,313,64,312.8,64z"/>
				<path class="st6" d="M314.7,59.8c-0.1,0-0.3,0-0.4-0.1c-0.2-0.2-0.2-0.5,0-0.7c0.1-0.1,3.4-3.5,10.5-2.5c6.7,1,10,0.8,14.9-2.2
					c4.8-3,5.6-6.7,5.6-6.8c0.1-0.3,0.3-0.5,0.6-0.4c0.3,0.1,0.5,0.3,0.4,0.6c0,0.2-0.9,4.2-6.1,7.4c-5.2,3.2-8.6,3.4-15.6,2.4
					c-6.5-1-9.5,2.1-9.6,2.1C315,59.8,314.9,59.8,314.7,59.8z"/>
				<path class="st6" d="M318.9,55.6c-0.2,0-0.3-0.1-0.4-0.2c-0.2-0.2-0.1-0.6,0.2-0.7c0.2-0.1,3.8-2.4,9.5-1.5
					c5.3,0.8,11-2.5,12.4-5c0.1-0.3,0.5-0.3,0.7-0.2c0.3,0.1,0.3,0.5,0.2,0.7c-1.6,2.8-7.7,6.3-13.5,5.5c-5.4-0.8-8.8,1.4-8.8,1.4
					C319.1,55.6,319,55.6,318.9,55.6z"/>
			</g>
		</g>
		<path class="st9" d="M317.6,90"/>
		<path class="st10" d="M317.6,90c0,0,4.2,5.4,13.8,4.6c9.6-0.8,16.7-5.4,19.8-11.9c0,0,1.3-3.5,0.2-6.9c0,0,0.8-0.2,1.7,0.4
			c0,0-0.8,6.5,2.1,7.9l1-0.6c0,0,1.7,4.6-0.2,11.5c-1.9,6.9-8.8,13.2-18.4,13.6c-9.6,0.4-14.2-1.9-17.5-8.3
			C316.8,93.7,317.6,90,317.6,90z"/>
		<circle class="st11" cx="321.7" cy="85.5" r="1.1"/>
		
			<ellipse transform="matrix(0.9862 -0.1657 0.1657 0.9862 -9.2248 57.5413)" class="st11" cx="340.2" cy="84.1" rx="1.1" ry="1.1"/>
		<g>
			<path class="st3" d="M330.7,93.8c-0.5,0-1-0.1-1.3-0.4c-0.2-0.2-0.5-0.5-0.5-1.1c0-1.2,0.2-8.9,0.2-9.2c0-0.3,0.2-0.5,0.5-0.5
				c0.3,0,0.5,0.3,0.5,0.5c0,0.1-0.2,7.9-0.2,9.2c0,0.2,0.1,0.3,0.1,0.3c0.3,0.2,1,0.2,1.7,0c0.3-0.1,0.6,0.1,0.6,0.4
				c0.1,0.3-0.1,0.6-0.4,0.6C331.6,93.7,331.1,93.8,330.7,93.8z"/>
			<path class="st3" d="M319.3,82.5c-0.1,0-0.1,0-0.2,0c-0.3-0.1-0.4-0.4-0.3-0.7c0-0.1,1.2-2.7,6.2-3.7c0.3-0.1,0.6,0.1,0.6,0.4
				c0.1,0.3-0.1,0.6-0.4,0.6c-4.4,1-5.5,3.1-5.5,3.1C319.7,82.3,319.5,82.5,319.3,82.5z"/>
			<path class="st3" d="M342,80.6c-0.2,0-0.3-0.1-0.4-0.2c0,0-1.4-2-5.9-2.2c-0.3,0-0.5-0.3-0.5-0.6c0-0.3,0.3-0.5,0.6-0.5
				c5.1,0.2,6.7,2.6,6.8,2.7c0.2,0.2,0.1,0.6-0.2,0.7C342.1,80.6,342,80.6,342,80.6z"/>
		</g>
		<g>
			<path class="st0" d="M330.1,98.9c-0.1,0-0.3,0-0.4,0c-4.9-0.1-7.9-1.2-8-1.2c-0.2-0.1-0.3-0.3-0.2-0.5c0.1-0.2,0.3-0.3,0.5-0.2
				c0.1,0,11.8,4.3,27-3.9c0.2-0.1,0.4,0,0.5,0.2c0.1,0.2,0,0.4-0.2,0.5C341.5,97.9,334.6,98.9,330.1,98.9z"/>
			<path class="st0" d="M331.7,102.2c-0.5,0-0.9,0-1.3,0c-4.9-0.2-7.9-1.4-8.1-1.5c-0.2-0.1-0.3-0.3-0.2-0.5
				c0.1-0.2,0.3-0.3,0.5-0.2c0.1,0,12.3,4.8,26.3-3.3c0.2-0.1,0.4,0,0.5,0.1c0.1,0.2,0,0.4-0.1,0.5
				C342.5,101.3,336.2,102.2,331.7,102.2z"/>
			<path class="st0" d="M332.9,105.3c-6,0-9.8-2.1-9.8-2.1c-0.2-0.1-0.3-0.4-0.1-0.5c0.1-0.2,0.3-0.3,0.5-0.1c0.1,0.1,11,6,25.5-2.9
				c0.2-0.1,0.4-0.1,0.5,0.1c0.1,0.2,0.1,0.4-0.1,0.5C343,104.1,337.3,105.3,332.9,105.3z"/>
		</g>
		<g>
			<path class="st12" d="M320.9,95c-4.8,0-8.7-3.9-8.7-8.7c0-4.8,3.9-8.7,8.7-8.7c4.8,0,8.7,3.9,8.7,8.7
				C329.5,91.1,325.7,95,320.9,95z M320.9,78.9c-4.1,0-7.4,3.3-7.4,7.4c0,4.1,3.3,7.4,7.4,7.4c4.1,0,7.4-3.3,7.4-7.4
				C328.3,82.2,325,78.9,320.9,78.9z"/>
			<path class="st12" d="M341.7,93.2c-4.8,0-8.7-3.9-8.7-8.7c0-4.8,3.9-8.7,8.7-8.7c4.8,0,8.7,3.9,8.7,8.7
				C350.4,89.3,346.5,93.2,341.7,93.2z M341.7,77.1c-4.1,0-7.4,3.3-7.4,7.4c0,4.1,3.3,7.4,7.4,7.4s7.4-3.3,7.4-7.4
				C349.1,80.5,345.8,77.1,341.7,77.1z"/>
			<path class="st12" d="M333.6,85.2c-3.7-0.9-4.4-0.1-4.4-0.1l-1.1-0.6c0.2-0.4,1.2-1.6,5.8-0.5L333.6,85.2z"/>
		</g>
		<path class="st3" d="M355,78.6c0,0-0.2,2.2,0.7,3.3c0,0,2.6-1.2,2-2.7C357.2,77.7,355,78.6,355,78.6z"/>
		<path class="st13" d="M368.2,106.3l-8.1-2.1l-1.9-5c0,0-6.1,9.2-18.6,10.4c-12.5,1.3-14.4-2.7-14.4-2.7l0.6,3.5l-6.7,5.2l6.5,50.7
			l10.9,64.9l23.6-1.5c0,0,5.4-32.4,5.4-33.2c0-0.8,3.8-82.7,3.8-82.7L368.2,106.3z"/>
		<path class="st14" d="M336.3,115.8c-7.7,0-10.5-3.5-10.7-3.7c-0.1-0.2-0.1-0.4,0.1-0.6c0.2-0.1,0.4-0.1,0.6,0.1
			c0,0,3.6,4.4,13.4,3.2c10-1.2,17-7.1,19.4-10.1c0.1-0.2,0.4-0.2,0.6-0.1c0.2,0.1,0.2,0.4,0.1,0.6c-2.4,3-9.6,9.1-19.9,10.4
			C338.6,115.8,337.4,115.8,336.3,115.8z"/>
		<path class="st10" d="M300.7,231.5h104c0,0,2.9-28.8,3.1-40.9c0,0,15.4-12.1,16.3-28c0.8-15.9-9-28.6-13.2-34
			c-4.2-5.4-16.1-17.5-22.8-19c-6.7-1.5-16.7-1.5-16.7-1.5L358.1,186l-12.9,40.9l-11.1-1.3l-14.4-84.7l-4.8-23.6
			c0,0-11.1,4.6-17.7,9.2c-6.7,4.6-21.7,17.1-24.8,29.4c-3.1,12.3,0.4,24,5.2,27.6c4.8,3.5,19.4,15.7,19.4,15.7l3.5,10.2
			L300.7,231.5z"/>
		<path class="st10" d="M318.7,114.4c0,0-4.8,2.7-7.3,5.6c-2.5,2.9-10.4,13.2-8.6,15.4c1.9,2.3,13.8,12.9,13.8,12.9
			s-6.7,13.6-6.7,16.3c0,2.7,21.1,66.6,21.1,66.6h10c0,0-12.1-78.3-15.2-91.8c-3.1-13.6-5.4-25.7-5.4-25.7S319.3,114,318.7,114.4z"
			/>
		<path class="st15" d="M331,231.8c-0.2,0-0.4-0.1-0.5-0.4c-2.2-6.5-21.1-64-21.1-66.8c0-2.6,5.3-13.7,6.6-16.2
			c-1.9-1.7-11.8-10.6-13.5-12.7c-2.5-3.1,8.5-16,8.6-16.1c0.2-0.2,0.5-0.2,0.7-0.1c0.2,0.2,0.2,0.5,0.1,0.7
			c-4.3,5-9.8,13.2-8.6,14.8c1.8,2.2,13.6,12.8,13.7,12.9c0.2,0.2,0.2,0.4,0.1,0.6c-1.8,3.7-6.6,13.9-6.6,16
			c0,1.9,12.6,40.8,21.1,66.4c0.1,0.3-0.1,0.6-0.3,0.7C331.1,231.8,331,231.8,331,231.8z"/>
		<path class="st10" d="M365.4,105c0,0-5.2,38.8-7.1,52c-1.9,13.2-17.5,65.8-18.2,68.3c-0.6,2.5-1.3,6.5-1.3,6.5l5.6-0.2
			c0,0,28.2-67,29-69.9c0.8-2.9-4.2-14.6-4.2-14.6s16.1-15.9,15.9-18.6c-0.2-2.7-12.3-21.5-13.2-21.9C371.3,106,365.4,105,365.4,105
			z"/>
		<path class="st15" d="M344.6,232c-0.1,0-0.1,0-0.2,0c-0.3-0.1-0.4-0.4-0.3-0.7c0.3-0.7,28.2-67,29-69.9c0.6-2.2-2.8-11.1-4.2-14.3
			c-0.1-0.2,0-0.4,0.1-0.6c6.6-6.5,15.8-16.5,15.7-18.2c-0.2-2.4-11.7-20.5-12.9-21.5c-0.3-0.1-0.3-0.4-0.2-0.7
			c0.1-0.3,0.5-0.4,0.7-0.2c0.9,0.4,7,10.2,7,10.3c2.3,3.8,6.3,10.4,6.4,12.1c0.2,2.7-12.6,15.6-15.8,18.7
			c0.9,2.2,4.9,11.8,4.1,14.6c-0.8,2.9-27.9,67.3-29,70C345,231.9,344.8,232,344.6,232z"/>
		<path class="st15" d="M388,157.3c-0.2,0-0.3-0.1-0.4-0.2l-2.5-3.3c-0.2-0.2-0.1-0.6,0.1-0.7c0.2-0.2,0.6-0.1,0.7,0.1l2.5,3.3
			c0.2,0.2,0.1,0.6-0.1,0.7C388.2,157.3,388.1,157.3,388,157.3z"/>
		<path class="st13" d="M380.3,168.5h-17.7c-1.2,0-2.1-0.9-2.1-2.1v-9.8c0-1.2,0.9-2.1,2.1-2.1h17.7c1.2,0,2.1,0.9,2.1,2.1v9.8
			C382.3,167.5,381.4,168.5,380.3,168.5z"/>
		<path class="st16" d="M375.8,151.1h-2.5v-3.3c0-0.2-0.2-0.4-0.4-0.4H369c-0.2,0-0.4,0.2-0.4,0.4v3.3h-2.5c-0.4,0-0.7,0.3-0.7,0.7
			v3.7c0,0.4,0.3,0.7,0.7,0.7h9.7c0.4,0,0.7-0.3,0.7-0.7v-3.7C376.5,151.4,376.2,151.1,375.8,151.1z"/>
		<circle class="st4" cx="366.2" cy="162.1" r="3.4"/>
		<g>
			<path class="st10" d="M379.3,161H372c-0.3,0-0.5-0.2-0.5-0.5c0-0.3,0.2-0.5,0.5-0.5h7.4c0.3,0,0.5,0.2,0.5,0.5
				C379.8,160.8,379.6,161,379.3,161z"/>
			<path class="st10" d="M376.5,163.7h-4.4c-0.3,0-0.5-0.2-0.5-0.5c0-0.3,0.2-0.5,0.5-0.5h4.4c0.3,0,0.5,0.2,0.5,0.5
				C377,163.4,376.8,163.7,376.5,163.7z"/>
		</g>
		<path class="st10" d="M302,156.1c0,0,5.7,4.7,11.1,11.7c3.9,5.1,7.8,11.4,9.2,18L297,199.1l-15.9-22.3L302,156.1z"/>
		<path class="st15" d="M322.2,186.3c-0.2,0-0.5-0.2-0.5-0.4c-1.2-5.6-4.2-11.5-9.1-17.8c-5.3-6.8-10.9-11.5-11-11.6
			c-0.2-0.2-0.3-0.5-0.1-0.7c0.2-0.2,0.5-0.3,0.7-0.1c0.1,0,5.8,4.8,11.2,11.7c4.9,6.4,8,12.5,9.3,18.2c0.1,0.3-0.1,0.6-0.4,0.6
			C322.3,186.3,322.3,186.3,322.2,186.3z"/>
		<path class="st15" d="M288.4,192.2c0,0-0.1,0-0.1,0c-0.3-0.1-0.5-0.4-0.4-0.6c4.4-17.2,19.6-21.4,19.8-21.5
			c0.3-0.1,0.6,0.1,0.6,0.4c0.1,0.3-0.1,0.6-0.4,0.6c-0.1,0-14.8,4.1-19,20.7C288.9,192,288.6,192.2,288.4,192.2z"/>
		<path class="st10" d="M392.2,153c0,0-6.3,5-13.5,11.8c-6,5.6-12.6,12.4-16.8,18.5L383,205c0,0,19.4-11.5,24.8-14.4l0.4-23.6
			L392.2,153z"/>
		<path class="st15" d="M361.9,183.8c-0.1,0-0.2,0-0.3-0.1c-0.2-0.2-0.3-0.5-0.1-0.7c3.5-5.2,9.2-11.4,16.8-18.5
			c7.1-6.7,13.5-11.8,13.5-11.8c0.2-0.2,0.6-0.1,0.7,0.1c0.2,0.2,0.1,0.6-0.1,0.7c-0.1,0.1-6.4,5.1-13.5,11.8
			c-7.6,7.1-13.2,13.3-16.7,18.4C362.2,183.7,362.1,183.8,361.9,183.8z"/>
		<path class="st15" d="M394.7,196.7c-0.2,0-0.4-0.1-0.5-0.4c-3.5-10.8-8.9-16.7-12.9-19.8c-4.3-3.3-7.8-4.1-7.8-4.1
			c-0.3-0.1-0.5-0.3-0.4-0.6c0.1-0.3,0.3-0.5,0.6-0.4c0.1,0,3.7,0.8,8.2,4.2c4.1,3.1,9.7,9.2,13.3,20.3c0.1,0.3-0.1,0.6-0.3,0.7
			C394.8,196.7,394.7,196.7,394.7,196.7z"/>
		<path class="st15" d="M382.7,222.8c-0.2,0-0.5-0.1-0.7-0.4c-0.7-0.8-1-3.1-0.4-4.6c0.4-1,1.1-1.2,1.5-1.3
			c2.2-0.2,15.8-0.6,20.1-0.2c0.3,0,0.5,0.3,0.5,0.6c0,0.3-0.3,0.5-0.6,0.5c-4.3-0.4-17.8,0-19.9,0.2c-0.3,0-0.6,0.3-0.8,0.9
			c-0.3,1.3,0,2.9,0.3,3.2c1.4-0.2,9.3,0,10.2,0c0.3,0,0.5,0.2,0.5,0.5c0,0.3-0.2,0.5-0.5,0.5c-3.7-0.1-9.4-0.2-10.1,0
			C382.8,222.8,382.8,222.8,382.7,222.8z"/>
		<ellipse class="st0" cx="336" cy="228.3" rx="27.3" ry="7"/>
		<path class="st17" d="M363.4,235.8c0,3.9-12.2,7-27.3,7c-15.1,0-27.3-3.1-27.3-7v-7.5c0,3.9,12.2,7,27.3,7c15.1,0,27.3-3.1,27.3-7
			V235.8z"/>
		<ellipse class="st18" cx="335.2" cy="228.2" rx="9.4" ry="2.9"/>
		<path class="st19" d="M361.3,221.1c0,0,7.5,1,11.9-1.9c4.4-2.9,12.1-15.7,12.3-19.8c0.2-4.2-4.2-15.2-12.3-16.3
			c-8.1-1-10-1.5-16.1,0.2c-6.1,1.7-9.4,6.9-13.4,8.8c-4,1.9-8.3,7.7-4,10.2C344.1,204.8,361.3,221.1,361.3,221.1z"/>
		<path class="st16" d="M337,226.1l9.6-51.1l1.8-1.3c1-0.7,2.4-0.3,2.9,0.9l0.8,2.1l-13.4,50.5C338.7,227.1,337.3,229,337,226.1z"/>
		<path class="st19" d="M348.3,193.3c0,0-7.1,9.8-9.4,11.3c-2.3,1.5-3.1,6.3-0.4,7.7c2.7,1.5,5,1,5,1s-0.2,5,4.6,5.4
			c4.8,0.4,5.4,0.2,5.4,0.2s0.6,2.1,4,2.3c3.3,0.2,3.8-0.2,3.8-0.2l3.8-1.6l3.5-1.5l5.6-14.6l-18.4-13.8L348.3,193.3z"/>
		<path class="st19" d="M329.3,202.3c0,0,3.8-2.7,1.5-9c-2.3-6.3-8.8-9.4-12.7-11.1c-4-1.7-12.7-5-17.7,2.9
			c-5,7.9-6.5,18.6-4.8,22.3c1.7,3.8,7.7,8.3,13.4,8.6c5.6,0.2,10.6-1.3,11.7-2.1C321.6,213.1,329.3,202.3,329.3,202.3z"/>
		<path class="st16" d="M329.1,224.2c0,0,1.5,2.3,2.5-0.4l-7.7-46.8l-1.3-1.7c-0.8-1-2.4-0.8-2.8,0.4l-0.8,2.1L329.1,224.2z"/>
		<path class="st19" d="M307.8,211c0.9,0.4,4.3,1.4,7.2,2.2c2.5,0.7,4.7,1.3,4.7,1.3s2.7,0.6,5.6,0.3c3-0.3,4.1-2.7,4.1-2.7
			s1.6-0.2,3-0.6s2.3-2.8,2-4.4c-0.2-1.1-3.2-2.8-5.5-4.3c-0.9-0.6-1.7-1.2-2.2-1.6c-1.7-1.7-7.2-8.3-7.2-8.3s-7-1.6-7.5-1.3
			c-0.5,0.3-7.2,12.8-7.2,12.8L307.8,211z"/>
		<g>
			<path class="st17" d="M361.3,221.5c-0.2,0-0.3-0.1-0.4-0.2c-0.1-0.2,0-0.4,0.2-0.5l7.3-3.1c0.2-0.1,0.4,0,0.5,0.2
				c0.1,0.2,0,0.4-0.2,0.5l-7.3,3.1C361.4,221.4,361.3,221.5,361.3,221.5z"/>
			<path class="st17" d="M343.5,213.7c-0.2,0-0.3-0.1-0.4-0.3c0-0.2,0.1-0.4,0.3-0.5c3.8-0.8,13.3-8,13.4-8.1
				c0.2-0.1,0.4-0.1,0.6,0.1c0.1,0.2,0.1,0.4-0.1,0.6C356.9,205.8,347.6,212.9,343.5,213.7C343.6,213.7,343.5,213.7,343.5,213.7z"/>
			<path class="st17" d="M353.5,219.4c-0.2,0-0.3-0.1-0.4-0.3c-0.1-0.2,0.1-0.4,0.3-0.5c3.2-0.8,9.4-4.7,9.5-4.8
				c0.2-0.1,0.4-0.1,0.5,0.1c0.1,0.2,0.1,0.4-0.1,0.5C363.1,214.7,357,218.5,353.5,219.4C353.6,219.4,353.6,219.4,353.5,219.4z"/>
			<path class="st17" d="M319.7,214.9c0,0-0.1,0-0.1,0c0,0-2.2-0.6-4.7-1.3c-4-1.1-6.5-1.9-7.3-2.2c-0.2-0.1-0.3-0.3-0.2-0.5
				c0.1-0.2,0.3-0.3,0.5-0.2c0.7,0.3,3.2,1.1,7.1,2.2c2.5,0.7,4.7,1.3,4.7,1.3c0.2,0.1,0.3,0.3,0.3,0.5
				C320,214.8,319.8,214.9,319.7,214.9z"/>
			<path class="st17" d="M328.9,203.2c-0.1,0-0.1,0-0.2-0.1c-1.1-0.7-1.8-1.3-2.3-1.7c-1.7-1.7-7-8.1-7.2-8.3
				c-0.1-0.2-0.1-0.4,0.1-0.6c0.2-0.1,0.4-0.1,0.6,0.1c0.1,0.1,5.5,6.6,7.2,8.3c0.5,0.5,1.4,1.1,2.1,1.6c0.2,0.1,0.2,0.4,0.1,0.5
				C329.2,203.2,329,203.2,328.9,203.2z"/>
			<path class="st17" d="M329.4,212.5C329.4,212.5,329.3,212.5,329.4,212.5c-2.8-0.3-8-2.2-16.6-9c-0.2-0.2-0.4-0.3-0.4-0.3
				c-0.2-0.1-0.2-0.4-0.1-0.6c0.1-0.2,0.4-0.2,0.5-0.1c0.1,0,0.2,0.2,0.5,0.4c8.4,6.7,13.4,8.5,16.1,8.8c0.2,0,0.4,0.2,0.3,0.4
				C329.7,212.4,329.6,212.5,329.4,212.5z"/>
		</g>
	</g>
	<g>
		<circle class="st1" cx="142.2" cy="367.4" r="74.5"/>
		<path class="st3" d="M170.8,292.4c0.5-0.3,3.3-4.2,5.2-2c2,2.3-1,5.9-5.7,6.2L170.8,292.4z"/>
		<path class="st20" d="M171.3,293.7c0,0,1.6-2,2.8-1.1c1.1,0.8-1.1,2.8-2.4,2.8l-0.8-0.7L171.3,293.7z"/>
		<path class="st4" d="M120.3,325.1l8.8-3.6l33.3,5.2l8.5,10.1l-5.2,81.9l-17.9,12.1l-34.6-6.8c0,0,1.6-60,1.3-61
			C114.1,361.9,120.3,325.1,120.3,325.1z"/>
		<path class="st3" d="M127.4,323.4c0,0,4.6-16.6,4.9-19.9l30.3,16.6c0,0-2,10.4-2.6,13c0,0-10.8,5.9-11.7,5.9
			C147.3,339.1,134.3,334.8,127.4,323.4z"/>
		<g>
			<path class="st21" d="M148.3,339.1c0,0,9.8,9.5,11.1,9.5s2.9-21.9,2.9-21.9S155.2,336.8,148.3,339.1z"/>
			<path class="st21" d="M127.4,322.1c0,0,11.7,15,20.9,17c0,0-10.4,11.1-12.7,9.5C133.3,346.9,125.8,329.6,127.4,322.1z"/>
		</g>
		<path class="st21" d="M143.1,412.1C143.1,412.1,143,412.1,143.1,412.1c-0.4-0.1-0.7-0.4-0.6-0.7c1-7.4,5.5-68.8,5.5-69.4
			c0-0.3,0.3-0.6,0.7-0.6c0.3,0,0.6,0.3,0.6,0.7c0,0.6-4.6,62.1-5.5,69.5C143.7,411.9,143.4,412.1,143.1,412.1z"/>
		<path class="st10" d="M182.4,450.2H82.2l-1.4-9.1c0,0-14.4-5.2-16.3-17s-0.3-37.5,2.6-51.9c2.9-14.4,4.9-23.8,9.8-26.7
			c4.9-2.9,36.5-22.5,48.3-22.8c0,0-2.9,22.5-3.3,40.4c-0.3,17.9-2.6,36.2-2.6,36.2l13,26.7l24.1-3.6c0,0,8.8-51.9,7.2-94.9l-1.3-1
			c0,0,2-0.7,4.2,1.3c2.3,2,19.2,13.7,24.5,16.6c5.2,2.9,10.4,16.6,12.1,24.1c1.6,7.5,5.2,35.6,0.3,47
			c-4.9,11.4-14.7,22.8-18.3,24.1s-5.2,1.6-5.2,1.6L182.4,450.2z"/>
		<g>
			<path class="st15" d="M169.8,379.1c-0.1,0-0.3,0-0.4-0.1c-0.2-0.2-0.2-0.5,0-0.7c6-6.3,12.4-13.6,12.6-14.7
				c0.2-1.4-4.5-17.4-7.5-27.2c-0.1-0.3,0.1-0.6,0.3-0.7c0.3-0.1,0.6,0.1,0.7,0.3c1.3,4.3,7.8,25.7,7.5,27.6
				c-0.3,2-10.8,13.1-12.9,15.3C170.1,379,170,379.1,169.8,379.1z"/>
			<path class="st15" d="M112.7,396.9c-0.2,0-0.4,0-0.5-0.3c-1.3-5-4.1-16.4-2.7-17.8c1.2-1.2,5.2-3.1,6.8-3.8c-0.7-0.9-3-3-5-4.9
				c-7.2-6.9-10.4-10.1-10.2-11.5c0.3-2.3,11.8-27.6,13.1-30.5c0.1-0.3,0.4-0.4,0.7-0.3c0.3,0.1,0.4,0.4,0.3,0.7
				c-3.5,7.8-12.7,28.4-13,30.2c0,1.2,6.4,7.3,9.9,10.6c5.2,5,5.6,5.5,5.5,6c0,0.2-0.2,0.4-0.4,0.4c-0.9,0.3-5.8,2.6-7,3.8
				c-0.6,0.9,1.1,9.4,3.1,17.1c0.1,0.3-0.1,0.2-0.4,0.2C112.9,396.9,112.7,396.9,112.7,396.9z"/>
			<path class="st15" d="M104.3,394.7C104.3,394.7,104.3,394.7,104.3,394.7c-0.3,0-0.5-0.3-0.5-0.6l0.3-5.5c0-0.3,0.3-0.5,0.6-0.5
				c0.3,0,0.5,0.3,0.5,0.6l-0.3,5.5C104.8,394.5,104.6,394.7,104.3,394.7z"/>
			<path class="st15" d="M119.3,399.9c-0.1,0-0.2,0-0.3-0.1c-9.9-5.6-17.3-4.8-25.1-3.8c-5.5,0.6-10.6,1-14.4,1
				c-0.3,0-0.5-0.2-0.5-0.5c0-0.3,0.2-0.5,0.5-0.5c3.8,0,8.8-0.3,14.3-1c8-0.9,15.6-1.8,25.8,4c0.3,0.1,0.3,0.5,0.2,0.7
				C119.6,399.9,119.5,399.9,119.3,399.9z"/>
			<path class="st15" d="M89.3,442.4c-2.9,0-5.8-0.2-8.5-0.7c-0.3,0-0.5-0.3-0.4-0.6s0.3-0.5,0.6-0.4c16.6,2.9,37.4-4.5,37.6-4.5
				c0.3-0.1,0.6,0,0.7,0.3c0.1,0.3,0,0.6-0.3,0.7C118.6,437.2,103.9,442.4,89.3,442.4z"/>
			<path class="st15" d="M110.5,434.2c-0.2,0-0.3-0.1-0.4-0.2c-12.1-18.3-4-36.8-4-37c0.1-0.3,0.4-0.4,0.7-0.3
				c0.3,0.1,0.4,0.4,0.3,0.7c-0.1,0.2-7.9,18.2,3.9,36c0.2,0.2,0.1,0.6-0.1,0.7C110.7,434.2,110.6,434.2,110.5,434.2z"/>
		</g>
		<path class="st19" d="M131.3,424.5c0,0-7.8,0.3-10.1-2.9c-2.3-3.3-4.9-12.7-4.2-16.6c0.7-3.9,7.8-11.4,9.5-12.7
			c1.6-1.3,6.8-4.6,10.1-4.6c3.3,0,8.2,2.6,8.2,2.6l-8.5,32.6L131.3,424.5z"/>
		<polygon class="st10" points="129.7,372.4 135.6,371.4 141.8,395.2 138.5,400.4 137.7,401.9 		"/>
		<path class="st16" d="M132.3,359.3c0,0,5,12.6,4.6,13.3c-0.4,0.7-0.9,0.4-0.9,0.4l-6,1.4l2.4,8.2c0,0-1.3-0.2-2.1-1.5
			c-0.8-1.3-2.2-7.7-2.4-9c-0.2-1.3-1.3-11.2-1.3-11.9c0-0.7,0.1-2.2,2.2-2.5C130.9,357.3,131.7,357.9,132.3,359.3z"/>
		<path class="st19" d="M131.5,392.4c0,0,3-2,6.4-0.4c3.4,1.5,5.7,3.9,5.7,3.9l-6.6,25.1l-4.3-13.5L131.5,392.4z"/>
		<path class="st16" d="M147.3,372.9L123,438.1c0,0-2.4,5.4,2.8,5.7c5.2,0.2,46.5,0,46.5,0s3-0.2,5.9-6.1
			c2.8-5.9,12.4-28.3,14.4-36.1c2-7.8,2.6-28.7,2.6-28.7l-43.3-0.9C151.9,372,148,372,147.3,372.9z"/>
		<path class="st19" d="M189.1,372.7h-6.5c0,0,2.8-5.2,8.7-6.7c5.9-1.5,12.4-2.8,17.6,2.6c5.2,5.4,10.2,16.5,10,22
			c-0.2,5.4-3.9,14.1-7.8,16.7c-3.9,2.6-10,2.8-12.6,2.6c-2.6-0.2-6.7-4.8-6.7-4.8s-4.1,0.4-6.1-1.3c-2-1.7-3.7-6.1-3.9-8.5
			c0,0-5.2-2.8-5.9-5.2c-0.7-2.4,0-5.2,2-5.7c2-0.4,7.2-3.5,8.7-4.8C188,378.3,189.1,372.7,189.1,372.7z"/>
		<g>
			<path class="st17" d="M181.7,395.8c-0.3,0-0.5-0.2-0.5-0.5c0-0.3,0.2-0.5,0.5-0.5c6.7-0.2,16.8-7,16.9-7.1
				c0.2-0.2,0.6-0.1,0.7,0.1c0.2,0.2,0.1,0.6-0.1,0.7C198.7,388.8,188.7,395.6,181.7,395.8C181.7,395.8,181.7,395.8,181.7,395.8z"/>
			<path class="st17" d="M191.7,405.6c-0.3,0-0.5-0.2-0.5-0.5c0-0.3,0.2-0.5,0.5-0.5c4.8,0,10.7-3.8,10.8-3.8
				c0.2-0.2,0.6-0.1,0.7,0.2c0.2,0.2,0.1,0.6-0.2,0.7C202.8,401.8,196.8,405.6,191.7,405.6z"/>
		</g>
		<path class="st13" d="M181,368.5l-3-0.2c0,0,2.2-3.7-2.6-3.7c-3.6,0-4.5,3.8-4.5,3.8l-3.6,0.2c-0.5,0-1,0.4-1.2,0.8l-2.2,4.8
			c-0.4,1,0.3,2,1.3,2h13c0.5,0,1-0.3,1.3-0.7l2.7-5C182.7,369.8,182.1,368.6,181,368.5z M176,368.1c-0.2,0.7-0.8,1.1-1.4,0.9
			c-0.6-0.1-0.9-0.8-0.7-1.5c0.2-0.7,0.8-1.1,1.4-0.9C175.8,366.8,176.2,367.4,176,368.1z"/>
		<path class="st3" d="M172.8,280.5c0,0-1.7,14.6-1.7,18l-4.3,7.2l-11.7,0.2l-15.4-3l-4.3-5.9v-13.7l5.7-11.7c0,0,13.3,1.7,13.9,1.7
			c0.7,0,16.3,2.8,16.3,2.8L172.8,280.5z"/>
		<ellipse class="st22" cx="145.4" cy="299.8" rx="4.6" ry="2"/>
		<path class="st22" d="M170.6,299.3c-0.2,0-0.4-0.1-0.6-0.1c-2.5-0.5-4.6,0-4.8,1.1c-0.2,0.9,1.2,2,3.3,2.5L170.6,299.3z"/>
		<path class="st12" d="M171.3,297.2c0,0,1.1,27.1-17,26.6c-18.1-0.5-23.2-13.4-23.3-19.1c-0.2-5.7,2-18.3,2.3-23.5
			c0.3-5.2,2-19.6,20.7-19.1c18.8,0.5,22.2,15.8,18.8,20.2c0,0-0.2-3.6-0.8-4.2c0,0-3.3,6.8-12.9,6.2c-9.6-0.7-14.5-6.4-15.7-8
			c-1.1-1.6-2.8-1.6-3.6,1.1c-0.8,2.8-3.3,10.9-2.6,14.7c0.7,3.8,8.6,10.1,19.7,10.8C168,303.5,171.1,297.7,171.3,297.2z"/>
		<circle class="st12" cx="149.3" cy="295.1" r="1.1"/>
		
			<ellipse transform="matrix(0.1789 -0.9839 0.9839 0.1789 -154.6125 407.4711)" class="st12" cx="166.8" cy="296.4" rx="1.1" ry="1.1"/>
		<g>
			<path class="st23" d="M170.5,291.2c-0.2,0-0.4-0.1-0.5-0.3c0,0-1.3-3.1-3.8-3.9c-0.3-0.1-0.4-0.4-0.3-0.7
				c0.1-0.3,0.4-0.4,0.7-0.3c3,1,4.3,4.4,4.4,4.5c0.1,0.3,0,0.6-0.3,0.7C170.6,291.2,170.6,291.2,170.5,291.2z"/>
			<path class="st23" d="M144.7,289.4c-0.1,0-0.2,0-0.2-0.1c-0.3-0.1-0.4-0.5-0.2-0.7c1.4-2.6,5.9-3.7,6.1-3.7
				c0.3-0.1,0.6,0.1,0.6,0.4c0.1,0.3-0.1,0.6-0.4,0.6c0,0-4.2,1-5.4,3.2C145.1,289.3,144.9,289.4,144.7,289.4z"/>
			<path class="st23" d="M157.5,302.6c-0.3,0-0.6,0-0.9-0.1c-0.3,0-0.5-0.3-0.4-0.6c0-0.3,0.3-0.5,0.6-0.4c0.6,0.1,1.5,0.1,1.9-0.3
				c0.5-0.4,0.4-1.2,0.4-1.2l0.2-8.2c0-0.3,0.3-0.5,0.5-0.5c0.3,0,0.5,0.2,0.5,0.5l-0.2,8.2l0,0c0,0,0.1,1.2-0.7,2
				C158.9,302.4,158.3,302.6,157.5,302.6z"/>
		</g>
		<path class="st10" d="M160,308.5c0,0-3.3,0.3-7.4-1c0,0-1.4,4,2.8,4.6C159.5,312.8,159.6,308.8,160,308.5z"/>
		<path class="st3" d="M133.8,287.4c0,0-3.9-4.9-6.4-1.3c-2.4,3.6,4.2,7,4.9,7S133.8,288.7,133.8,287.4z"/>
		<path class="st20" d="M132.3,288.4l-0.5,2.6c0,0-2.6-1.3-2.1-3.1C130.2,286.1,132.3,288.4,132.3,288.4z"/>
	</g>
	<g>
		<circle class="st1" cx="345.5" cy="367.4" r="74.5"/>
		<path class="st2" d="M282.1,326.7c0,0,7.5-1.1,10.2-4.9c2.6-3.8,3-5.5,2.4-6c-0.6-0.6-4.7-10-5.3-10.7
			c-0.6-0.8-13.9,12.6-13.9,12.6L282.1,326.7z"/>
		<path class="st19" d="M281.7,292c0,0,2.7,0.7,3.5-1.5c0.8-2.2,1.3-7.3-5.8-9.4L281.7,292z"/>
		<path class="st24" d="M414.9,365.5c0,0,5.7-4.5,1.5-10.2c-4.1-5.7-8.3-9-6.4-19.6c1.9-10.5,2.3-28.3-1.9-38.8
			c-4.1-10.5-12.4-15.1-19.6-12.1c0,0-2.6-9-12.4-7.2c-9.8,1.9-26,15.8-30.5,41.4c-4.5,25.6-6.8,35.4-9.4,39.9
			c-2.6,4.5,50.5,12.8,50.5,12.8L414.9,365.5z"/>
		<path class="st2" d="M390.4,333.5c0,0-0.3,1.9-0.6,4.5c-0.5,4-1,9.7-0.9,12.4l-20.9,7.3l-11.6-4.5l-2.5-8.8c0,0,0.6-4.2,1.3-8.8
			c0.7-4.7,1.6-9.9,2.1-11.6L390.4,333.5z"/>
		<path class="st3" d="M389.8,338.1c0.3-2.6,0.6-4.5,0.6-4.5l-33.1-9.3c-0.6,1.7-1.4,6.9-2.1,11.6c0,0,14.6,11.9,33.5,3.4
			L389.8,338.1z"/>
		<path class="st2" d="M361,304.4c0,0-4-6.5-6.8-2.5c-2.8,4,5.4,7.3,5.4,7.3L361,304.4z"/>
		<path class="st3" d="M359.3,306.4c0,0-1.7-3.7-3.4-2.8c-1.7,0.8,3.1,4.1,3.1,4.1L359.3,306.4z"/>
		<path class="st2" d="M397,317.7c0,0,6.4,0.4,6.5,3.1c0.1,2.7-3.2,4.7-8.2,3.8l-0.4-3L397,317.7z"/>
		<path class="st3" d="M396.2,321c0,0,3.7-0.4,3.5,0.8c-0.1,1.3-3.7,0.7-3.7,0.7L396.2,321z"/>
		<path class="st2" d="M363,296.5c0,0-4.8,9.6-6.4,17.7s-0.7,20.3,11.7,23.6c12.4,3.2,22.7-2.5,25.7-9.3c3-6.8,4-13,4-13l-7.1-19.6
			l-8.1-5.9l-11.7,3.5L363,296.5z"/>
		<path class="st24" d="M360,302.9c0,0,13.3,0.4,22.7-7.9c0,0,2.5,16.7,14.3,22.7l2,0.1l2.3-4.4c0,0-6.9-21-7.6-21.3
			c-0.7-0.3-17.2-6.5-17.2-6.5l-16.5,8.9L360,302.9z"/>
		<g>
			<path class="st3" d="M390,316.7c-0.2,0-0.4-0.1-0.5-0.4c-1.1-3.5-4.3-6.1-4.3-6.1c-0.2-0.2-0.3-0.5-0.1-0.7
				c0.2-0.2,0.5-0.3,0.7-0.1c0.1,0.1,3.5,2.8,4.7,6.6c0.1,0.3-0.1,0.6-0.3,0.7C390.1,316.7,390,316.7,390,316.7z"/>
			<path class="st3" d="M362.6,305.8c-0.2,0-0.3-0.1-0.4-0.2c-0.2-0.2-0.1-0.6,0.1-0.7c0.1-0.1,2.4-1.6,6.5-1.6
				c0.3,0,0.5,0.2,0.5,0.5c0,0.3-0.2,0.5-0.5,0.5c-3.7,0-5.9,1.4-5.9,1.5C362.8,305.8,362.7,305.8,362.6,305.8z"/>
			<path class="st3" d="M368.2,321.8c-0.1,0-0.1,0-0.2,0c-1.1-0.5-1.7-1.2-1.9-2c-0.3-1.3,0.6-2.5,1.3-3.3c1.2-1.4,4.7-7.7,4.7-7.8
				c0.1-0.3,0.5-0.3,0.7-0.2c0.3,0.1,0.4,0.5,0.2,0.7c-0.1,0.3-3.6,6.6-4.9,8c-0.5,0.5-1.2,1.5-1.1,2.4c0.1,0.5,0.5,0.9,1.3,1.3
				c0.3,0.1,0.4,0.4,0.3,0.7C368.6,321.7,368.4,321.8,368.2,321.8z"/>
		</g>
		<circle class="st11" cx="382.9" cy="316.7" r="1"/>
		<circle class="st11" cx="364.1" cy="309.6" r="1"/>
		
			<ellipse transform="matrix(0.3213 -0.947 0.947 0.3213 -43.4566 585.5285)" class="st7" cx="386.7" cy="323.1" rx="2.4" ry="4.9"/>
		<path class="st7" d="M359.1,310.6c-0.5-0.2-1-0.3-1.5-0.4c-0.4,1.3-0.7,2.6-1,3.9c0,0.2-0.1,0.4-0.1,0.6c0.3,0.2,0.7,0.3,1,0.4
			c2.6,0.9,5,0.6,5.5-0.7C363.5,313.2,361.7,311.5,359.1,310.6z"/>
		<path class="st10" d="M368.2,326.8c0,0,4.1,1.6,10.9-0.8c0,0,0.6,4.5-5.4,4.8C367.8,331,368.2,326.8,368.2,326.8z"/>
		<path class="st18" d="M354.5,340.9c0,0,1.1,9,12.4,11.3c11.3,2.3,22-3.4,22-3.4l6.2,2.3l-35.6,93l-18.1-1.4c0,0,1.7-72.6,2-73.5
			C343.8,368.3,354.5,340.9,354.5,340.9z"/>
		<g>
			<path class="st13" d="M381.3,368.2c-2.1-0.2-2.9-0.4-4.1-0.6c-0.6-0.1-1.4-0.3-2.4-0.5c-0.8-0.2-1.5-0.2-2-0.3
				c-1.4-0.1-2.4-0.2-3.5-1.9c-0.8-1.2-2.2-1.5-6.5-1.5c-4.4,0-15.4-6.5-16.6-7.2l1.1-1.8c3.2,1.9,12.3,6.9,15.6,6.9
				c4,0,6.7,0.2,8.2,2.4c0.5,0.8,0.6,0.8,1.9,0.9c0.6,0.1,1.3,0.1,2.2,0.3c1.1,0.2,1.9,0.4,2.5,0.5c1.2,0.3,1.9,0.4,3.9,0.6
				L381.3,368.2z"/>
			<path class="st13" d="M376.6,380.9c-0.1,0-2.4-0.6-5.6-2.4c-1.8-1-2.7-1-5.3-1.1c-1.5-0.1-3.5-0.1-6.4-0.5
				c-8.2-0.9-14.8-7.9-15.1-8.2l1.6-1.4c0.1,0.1,6.3,6.8,13.7,7.6c2.8,0.3,4.8,0.4,6.3,0.5c2.7,0.1,4,0.2,6.2,1.4
				c2.9,1.6,5.1,2.2,5.1,2.2L376.6,380.9z"/>
			<path class="st13" d="M372.3,393c0,0-1.7-0.6-4.4-1.1c-2.2-0.4-2.8-0.9-3.4-1.5c-0.1-0.1-0.2-0.2-0.3-0.3c-0.5-0.4-3.3-1.2-8-1.5
				c-4.7-0.3-9.9-3.4-10.1-3.5l1.1-1.8c0,0,4.9,3,9.1,3.2c4.7,0.3,8,1.2,9,1.9c0.3,0.2,0.5,0.4,0.7,0.6c0.3,0.3,0.6,0.6,2.3,0.9
				c2.9,0.6,4.6,1.1,4.6,1.2L372.3,393z"/>
			<path class="st13" d="M367.4,404.1c-0.5-0.1-5.1-0.6-7.2-1.8c-1.2-0.7-2.4-0.8-4.3-0.9c-0.7,0-1.5-0.1-2.4-0.1
				c-3.6-0.3-9.9-4.5-10.1-4.7l1.2-1.7c1.7,1.1,6.5,4.1,9.1,4.3c0.9,0.1,1.6,0.1,2.3,0.1c2,0.1,3.5,0.2,5.2,1.1
				c1.5,0.8,5.1,1.4,6.4,1.6L367.4,404.1z"/>
			<path class="st13" d="M364.9,416.8l-2.5-0.8c-0.4-0.1-0.8-0.3-1.3-0.5c-1.8-0.7-4.6-1.8-8.1-2c-4.7-0.3-8.8-2.6-8.9-2.7l1-1.8
				c0,0,3.8,2.1,8,2.4c3.8,0.2,6.7,1.4,8.7,2.2c0.5,0.2,0.9,0.3,1.2,0.4l2.5,0.8L364.9,416.8z"/>
			<path class="st13" d="M359.4,428.4c0,0-4-0.8-7.3-1.4l-6.8-1.1l0.3-2.1l6.8,1.1c3.4,0.6,7.4,1.4,7.4,1.4L359.4,428.4z"/>
		</g>
		<path class="st10" d="M349.7,450.2c0,0,18.6-59,27.1-75.7c8.5-16.7,13.8-26.3,13.8-26.3s8.5,4,9.3,5.1c0.8,1.1,1.4,4,1.4,4
			s24,11.9,30.2,20.9c6.2,9,9.9,72,9.9,72H349.7z"/>
		<path class="st13" d="M401.3,413.7l-16-3.8c-0.8-0.2-1.4-1.1-1.2-1.9l2.2-9.4c0.2-0.8,1.1-1.4,1.9-1.2l16,3.8
			c0.8,0.2,1.4,1.1,1.2,1.9l-2.2,9.4C403,413.3,402.1,413.9,401.3,413.7z"/>
		<path class="st16" d="M399.8,397.1l-0.3-0.1c0,0,0,0,0-0.1l0.4-1.7c0.1-0.5-0.2-1-0.7-1.1l-3.4-0.8c-0.5-0.1-1,0.2-1.1,0.7
			l-0.4,1.7c0,0,0,0,0,0.1l-0.5-0.1c-0.9-0.2-1.8,0.3-2,1.2l-0.5,2.1c-0.2,0.9,0.3,1.8,1.2,2l6,1.4c0.9,0.2,1.8-0.3,2-1.2l0.5-2.1
			C401.3,398.2,400.7,397.3,399.8,397.1z"/>
		<circle class="st4" cx="389.4" cy="404.8" r="2.6"/>
		<g>
			<path class="st10" d="M401.4,407.6c0,0-0.1,0-0.1,0l-6.7-1.6c-0.3-0.1-0.5-0.3-0.4-0.6c0.1-0.3,0.3-0.5,0.6-0.4l6.7,1.6
				c0.3,0.1,0.5,0.3,0.4,0.6C401.9,407.4,401.7,407.6,401.4,407.6z"/>
			<path class="st10" d="M399.2,409.2c0,0-0.1,0-0.1,0l-4.8-1.1c-0.3-0.1-0.5-0.4-0.4-0.6c0.1-0.3,0.3-0.5,0.6-0.4l4.8,1.1
				c0.3,0.1,0.5,0.4,0.4,0.6C399.6,409.1,399.4,409.2,399.2,409.2z"/>
		</g>
		<path class="st10" d="M351.6,449.8c0,0-3.8-62.5-3-79.5c0.8-17,5.9-29.5,5.9-29.5s-16.1,4.6-16.9,6.1c-0.8,1.5,0.4,3.4-2.3,3.4
			c-2.6,0-10.9-0.8-16.2-0.5c-5.3,0.4-16.2-16.9-16.2-16.9s1.2-1.2,0.4-2.9c-0.8-1.7-6.5-14.7-7.3-15.5c-0.8-0.8-2.5-1.4-2.5-1.4
			l-24,19.2c0,0,1.1,26.6,10.2,38.1c9,11.6,22,19.8,22,19.8s7.9,3.1,10.7,11.9c2.8,8.8,11.9,48,11.9,48L351.6,449.8z"/>
		<g>
			<path class="st15" d="M362.2,446.2c-0.1,0-0.2,0-0.3-0.1c-0.2-0.2-0.3-0.5-0.1-0.7c0.3-0.5,5.5-11.5,10.6-22.1
				c5.7-11.9,11-23.2,11.5-23.9c0.3-0.5-1-3.1-1.8-4.7c-1.4-2.8-2.2-4.6-1.8-5.6c0.8-2.1,17.5-7.6,17.6-7.7
				c0.9-0.8,1.5-10.9,1.5-20.1c0-0.3,0.2-0.5,0.5-0.5c0.3,0,0.5,0.2,0.5,0.5c0,7.6-0.3,20.5-2.2,21.1c-3.7,1.1-16.3,5.8-17,7.1
				c-0.2,0.6,1,3.1,1.8,4.8c1.4,3,2.3,4.8,1.8,5.7c-0.4,0.7-6.3,13-11.4,23.8c-6.4,13.6-10.4,21.8-10.6,22.2
				C362.5,446.1,362.3,446.2,362.2,446.2z"/>
			<path class="st15" d="M404.3,450.7C404.2,450.7,404.2,450.7,404.3,450.7c-0.3,0-0.5-0.3-0.5-0.6c0,0,0.3-4.6,0.3-8.7v-17.8
				c0-0.3,0.2-0.5,0.5-0.5c0.3,0,0.5,0.2,0.5,0.5v17.8c0,4.2-0.3,8.7-0.3,8.8C404.8,450.5,404.5,450.7,404.3,450.7z"/>
			<path class="st15" d="M344.6,446.2c-0.2,0-0.5-0.2-0.5-0.4c-0.1-0.5-9.6-50.6-10.2-53.2c-0.6-2.6,5.7-8.9,7.7-10.9
				c-2.2-2.6-9.4-11.5-9.4-13.7c0-2.3,8.7-17.5,9.7-19.2c0.1-0.3,0.5-0.3,0.7-0.2c0.3,0.1,0.3,0.5,0.2,0.7
				c-3.7,6.4-9.5,17.1-9.5,18.7c0,1.5,5.8,9,9.5,13.4c0.2,0.2,0.2,0.5,0,0.7c-3.2,3-8.1,8.5-7.8,10.2c0.6,2.7,10.1,52.8,10.2,53.3
				c0.1,0.3-0.1,0.6-0.4,0.6C344.7,446.2,344.7,446.2,344.6,446.2z"/>
			<path class="st15" d="M296.2,338.7c-0.2,0-0.4-0.1-0.5-0.3c-0.1-0.3,0-0.6,0.3-0.7c2.3-1.1,4.9-3.6,4.9-3.7
				c0.2-0.2,0.5-0.2,0.7,0c0.2,0.2,0.2,0.5,0,0.7c-0.1,0.1-2.7,2.7-5.2,3.9C296.4,338.7,296.3,338.7,296.2,338.7z"/>
		</g>
		<path class="st25" d="M303.3,346.5l-16.9-27c0,0,0-0.1,0-0.1l-4.6-23.9v-29.8h-4.5h-0.4h-4.5v29.8l-4.6,23.9c0,0,0,0.1,0,0.1
			l-16.9,27c-1.3,2.1-0.7,4.9,1.5,6.3c4.2,2.6,12.1,6.2,24.6,6.2v0c0.1,0,0.1,0,0.2,0c0.1,0,0.1,0,0.2,0v0
			c12.4-0.1,20.4-3.6,24.6-6.2C304,351.5,304.7,348.7,303.3,346.5z"/>
		<ellipse class="st10" cx="277" cy="265.8" rx="4.7" ry="1.8"/>
		<path class="st13" d="M299.8,349.4l-12.1-21.3c-0.5-0.9-1.5-1.4-2.6-1.3l-5.1,0.5c-2,0.2-4,0.2-6,0l-5.2-0.5
			c-1.1-0.1-2.1,0.4-2.6,1.4l-11.9,21.3c-0.3,0.3-0.5,0.6-0.5,0.9c0,2.3,10.4,4.2,23.2,4.2c12.8,0,23.2-1.9,23.2-4.2
			C300.3,350,300.1,349.7,299.8,349.4z"/>
		<g>
			<defs>
				<path id="SVGID_5_" d="M303.3,346.5l-16.9-27c0,0,0-0.1,0-0.1l-4.6-23.9v-29.8h-4.5h-0.4h-4.5v29.8l-4.6,23.9c0,0,0,0.1,0,0.1
					l-16.9,27c-1.3,2.1-0.7,4.9,1.5,6.3c4.2,2.6,12.1,6.2,24.6,6.2v0c0.1,0,0.1,0,0.2,0c0.1,0,0.1,0,0.2,0v0
					c12.4-0.1,20.4-3.6,24.6-6.2C304,351.5,304.7,348.7,303.3,346.5z"/>
			</defs>
			<clipPath id="SVGID_6_">
				<use xlink:href="#SVGID_5_"  style="overflow:visible;"/>
			</clipPath>
			<g class="st26">
				<path class="st10" d="M274.5,342.8c-15.2,0-21.3-5.9-21.5-6.2c-0.2-0.2-0.2-0.5,0-0.7c0.2-0.2,0.5-0.2,0.7,0
					c0.1,0.1,6.7,6.5,23.2,5.8c0.3,0,0.5,0.2,0.6,0.5c0,0.3-0.2,0.5-0.5,0.6C276.2,342.8,275.3,342.8,274.5,342.8z"/>
				<path class="st10" d="M271.3,333.2c-7.6,0-12.9-2.7-16.1-5.1c-3.8-2.9-5.5-5.9-5.6-6c-0.1-0.3,0-0.6,0.2-0.7
					c0.3-0.1,0.6,0,0.7,0.2c0.1,0.1,6.7,11.8,23.1,10.5c0.3,0,0.5,0.2,0.6,0.5c0,0.3-0.2,0.5-0.5,0.6
					C272.9,333.2,272.1,333.2,271.3,333.2z"/>
				<path class="st10" d="M272,323.8c-7.6,0-12.9-2.7-16.1-5.1c-3.8-2.9-5.5-5.9-5.6-6c-0.1-0.3,0-0.6,0.2-0.7
					c0.3-0.1,0.6,0,0.7,0.2c0.1,0.1,6.7,11.8,23.1,10.5c0.3,0,0.5,0.2,0.6,0.5c0,0.3-0.2,0.5-0.5,0.6
					C273.7,323.8,272.8,323.8,272,323.8z"/>
			</g>
		</g>
		<path class="st19" d="M272.4,290.9l-0.1-10.6c-2.9,0.3-4.6,1.1-4.6,1.1s-5.8,2.4-8.6,6.2c-2.8,3.8-5.8,12.4-5.3,18.2
			c0.4,5.8,6.5,14.2,11.4,15.1c4.9,0.9,19-1,20.8-3.3c1.8-2.3,1-7.9,1-7.9s2.2-2.3,1.8-4.5c-0.4-2.2-0.6-3.5-0.6-3.5
			s0.8-1.7,0.7-4.5c-0.1-2.8-7.1-5.3-7.1-5.3L272.4,290.9z"/>
		<g>
			<path class="st17" d="M279.5,311.9c-5.6,0-11.5-1.5-11.8-1.6c-0.3-0.1-0.4-0.4-0.4-0.6c0.1-0.3,0.4-0.4,0.6-0.4
				c0.1,0,13.4,3.5,18.8,0.1c0.2-0.2,0.6-0.1,0.7,0.2c0.2,0.2,0.1,0.6-0.2,0.7C285.3,311.5,282.4,311.9,279.5,311.9z"/>
			<path class="st17" d="M285.3,302.7c-5.4,0-13.8-2.5-14.2-2.6c-0.3-0.1-0.4-0.4-0.4-0.7c0.1-0.3,0.4-0.4,0.7-0.4
				c0.1,0,12.4,3.7,16.5,2.3c0.3-0.1,0.6,0,0.7,0.3c0.1,0.3,0,0.6-0.3,0.7C287.5,302.6,286.5,302.7,285.3,302.7z"/>
		</g>
	</g>
	<g>
		<circle class="st1" cx="142.2" cy="135.8" r="74.5"/>
		<path class="st10" d="M179.4,91.1c-1.1-1-2.7-1.3-4.1-0.6l-0.6-1.1c1.8-0.9,4.1-0.5,5.5,0.9L179.4,91.1z"/>
		<path class="st12" d="M175.8,120.9c-0.6-1.5-0.6-5.1,2.4-7.5c3-2.4,3.6-4.5-0.3-7.5c-3.9-3,1.2-4.2,2.4-6.9
			c1.2-2.7-3.3-7.5-4.8-8.1c-1.5-0.6-37.2-3.6-37.2-3.6s-6.3-2.1-9.6-1.2c-3.3,0.9-6,3.6-6,6c0,2.4-1.5,4.2-3.3,4.5
			c-1.8,0.3-3.3,1.8-1.8,3.9c1.5,2.1,2.1,3,0.6,4.2c-1.5,1.2-2.7,2.7,1.5,6.9s31.5,14.7,31.5,14.7L175.8,120.9z"/>
		<path class="st18" d="M134.7,96.2l-3.2,15.6c0,0,3.6,6.4,13.2,8c9.6,1.6,18-0.8,20.6-3.2l2.2-11.2L134.7,96.2z"/>
		<path class="st18" d="M124.7,109.8c0,0,5.8-0.6,9-0.8c3.2-0.2,33.2,6.4,33.2,6.4l1.4,30.4l-17.6,72.7l-14.8,2.2l-16-108.5
			L124.7,109.8z"/>
		<path class="st12" d="M172.2,89.3c0,0,8.1-1.8,9.3-7.8c1.2-6-1.2-7.8-3.3-9.9c-2.1-2.1,1.8-6.3,0-9c-1.8-2.7-4.2,0-5.7-0.9
			c-1.5-0.9,0.9-6.6-3.3-6c-4.2,0.6-5.4,2.4-6.3-1.8c-0.9-4.2-4.5-3.9-5.7-1.5s-3.9,3.3-6.3,0.6c-2.4-2.7-7.5-4.8-10.5-1.2
			c-3,3.6-0.9,6.3-6.3,6.9c-5.4,0.6-9.6-0.3-10.2,5.1c-0.6,5.4,2.4,6.3,0,9.3c-2.4,3-2.4,9.6,1.8,10.8c4.2,1.2,9.6,3,9.6,3l22.2,6.9
			l13.5-2.4L172.2,89.3z"/>
		<path class="st10" d="M133.2,83.1c-0.6-1.1-1.8-1.8-3.1-1.8V80c1.7,0,3.3,0.9,4.2,2.4L133.2,83.1z"/>
		<path class="st10" d="M128.1,81.9l-0.7-1c0.8-0.5,1.7-0.8,2.7-0.8v1.3C129.4,81.3,128.7,81.5,128.1,81.9z"/>
		<path class="st3" d="M136.4,78.8c0,0-4.5-5.1-6.9-1.2c-2.4,3.9,6,6.3,6,6.3L136.4,78.8z"/>
		<path class="st3" d="M173.1,86.3c0,0,5.4-3.6,7.2-1.8c1.8,1.8-0.6,6-4.8,6.3C171.3,91.1,173.1,86.3,173.1,86.3z"/>
		<path class="st20" d="M135,80.4c0,0-2.2-2.5-3.1-1.3c-0.9,1.2,1.5,3.3,2.5,2.9C135.4,81.6,135,80.4,135,80.4z"/>
		<path class="st10" d="M130.1,89.7c-2.7,0-4.8-2.2-4.8-4.8c0-1.6,0.8-3.1,2.1-4c0.3-0.2,0.7-0.1,0.9,0.2c0.2,0.3,0.1,0.7-0.2,0.9
			c-1,0.7-1.6,1.8-1.6,3c0,2,1.6,3.6,3.6,3.6c2,0,3.6-1.6,3.6-3.6c0-0.6-0.2-1.2-0.5-1.8c-0.2-0.3-0.1-0.7,0.2-0.9
			c0.3-0.2,0.7-0.1,0.9,0.2c0.4,0.7,0.6,1.6,0.6,2.4C135,87.5,132.8,89.7,130.1,89.7z"/>
		<path class="st10" d="M176.9,98.5c-2.7,0-4.8-2.2-4.8-4.8c0-1.9,1-3.5,2.7-4.3c0.3-0.2,0.7,0,0.8,0.3c0.2,0.3,0,0.7-0.3,0.8
			c-1.2,0.6-2,1.8-2,3.2c0,2,1.6,3.6,3.6,3.6c2,0,3.6-1.6,3.6-3.6c0-1-0.4-1.9-1.1-2.6c-0.3-0.2-0.3-0.6,0-0.9
			c0.2-0.3,0.6-0.3,0.9,0c0.9,0.9,1.5,2.1,1.5,3.5C181.7,96.3,179.5,98.5,176.9,98.5z"/>
		<path class="st20" d="M174.3,88.2c0,0,2.3-2.4,3-1.3c0.7,1.1-2.2,2.4-2.8,2.3c-0.6-0.1-1.3-0.3-1.3-0.3L174.3,88.2z"/>
		<path class="st3" d="M136.7,70.8c0,0-3.1,16.2-3.5,19.8c-0.4,3.6,1.2,18,17.4,20.7c15,2.5,21.2-9,22.4-15.5
			c1.2-6.5,1.3-14.2,2.6-17.7s-2.8-7.7-2.8-7.7s-9.1-5-9.6-5s-18-1.5-18.3-1.4C144.6,64.1,136.7,70.8,136.7,70.8z"/>
		<path class="st12" d="M134.7,77.2c0,0,2.6,3.6,6.6,3c4-0.6,4.5-4.7,4-7.1c-0.5-2.4,0.6-4.4,1.5-2.8c0.9,1.6-1.3,6.9,3.1,7.4
			c4.4,0.5,5.5-5.2,6.8-7.1c1.3-1.9,0.9,2,1.3,4.2c0.4,2.2,3.3,2.9,5.2,1.6c1.9-1.3,3.1-1,3,2.9c-0.1,3.8,4.8,7.4,8.3,6.1
			c0.1,0,0.3-0.1,0.4-0.2l3-6.5l-1.9-6.9l-9.4-7c0,0-21.4-3.2-22.5-2.8c-1.1,0.4-9.5,5.2-9.5,5.2L134.7,77.2z"/>
		<circle class="st12" cx="146.8" cy="86.9" r="1.1"/>
		<g>
			<path class="st23" d="M140.7,82.8c-0.2,0-0.4-0.1-0.5-0.3c-0.1-0.3,0-0.6,0.3-0.7c0.2-0.1,4.3-1.6,9-0.9c0.3,0,0.5,0.3,0.4,0.6
				c0,0.3-0.3,0.5-0.6,0.4c-4.4-0.7-8.4,0.9-8.4,0.9C140.9,82.8,140.8,82.8,140.7,82.8z"/>
			<path class="st23" d="M170.8,87.8c-0.2,0-0.3-0.1-0.4-0.2c-1.8-2.1-5.6-3-5.6-3c-0.3-0.1-0.5-0.3-0.4-0.6
				c0.1-0.3,0.3-0.5,0.6-0.4c0.2,0,4.2,1,6.2,3.4c0.2,0.2,0.2,0.6-0.1,0.7C171,87.7,170.9,87.8,170.8,87.8z"/>
			<path class="st23" d="M154.2,97.1c-0.3,0-0.5-0.2-0.5-0.5c0-0.3,0.2-0.5,0.5-0.5c1.4,0,2.8-0.2,3-0.5c0.1-0.6,0.1-8,0-8.7
				c-0.1-0.3,0.1-0.5,0.3-0.6c0.3-0.1,0.6,0.1,0.7,0.4c0.2,0.6,0.2,8.6,0,9.3C158,96.9,155.9,97.1,154.2,97.1z"/>
			<path class="st23" d="M151.7,101.8C151.7,101.8,151.7,101.8,151.7,101.8c-5.2-0.2-6.7-3.9-6.8-4c-0.1-0.3,0-0.6,0.3-0.7
				c0.3-0.1,0.6,0,0.7,0.3c0.1,0.1,1.4,3.2,5.8,3.4c0.3,0,0.5,0.3,0.5,0.5C152.3,101.6,152,101.8,151.7,101.8z"/>
		</g>
		<ellipse class="st22" cx="142.2" cy="92.4" rx="5.2" ry="2.5"/>
		
			<ellipse transform="matrix(0.2805 -0.9598 0.9598 0.2805 33.8055 224.5866)" class="st12" cx="166.7" cy="89.7" rx="1.1" ry="1.1"/>
		<path class="st22" d="M164.6,94.9c-0.4,1.3,1.5,3,4.3,3.8c1.2,0.3,2.3,0.5,3.3,0.4c0.4-1.1,0.7-2.2,0.9-3.2c0-0.2,0.1-0.3,0.1-0.5
			c-0.7-0.6-1.7-1.1-2.9-1.4C167.5,93.2,165,93.6,164.6,94.9z"/>
		<path class="st10" d="M167,115.4c0,0,36.2,22.2,39.2,28.8c3,6.6,11.4,32.4,12.8,44.4c1.4,12,2.2,19.2-1.6,25.8
			s-14.2,15.4-14.2,15.4l-6.2,1.8H80.5c0,0-0.6-18.8,0.2-25.8c0,0-19.2-1-21.6-18c-2.4-17,2.8-26.8,9.6-39
			c6.8-12.2,12.8-26.8,20.8-31s27.8-6.4,27.8-6.4l2,8.2l14.8,78.5l5.4,19.2l8.4-0.6l14.2-65.3L167,115.4z"/>
		<path class="st15" d="M151.9,220.2c-0.1,0-0.1,0-0.2,0c-0.3-0.1-0.4-0.4-0.3-0.7c0.2-0.6,23.9-57.5,25.4-61.4
			c0-0.3,0.1-1.8-0.7-3.2c-1-1.8-4.3-9.9-4.4-10.3c-0.1-0.2,0-0.3,0-0.5c0.1-0.1,0.2-0.2,0.4-0.3c1.2-0.2,4.5-0.8,5.5-1.7
			c0.3-0.3,0.6-3,0-10.6c-0.4-5.6-1.1-10.1-1.3-10.6c-0.1-0.3,0-0.6,0.2-0.7c0.3-0.1,0.6,0,0.7,0.2c0.4,0.8,1,6.4,1.4,11.1
			c0.8,10.4,0,11.1-0.3,11.4c-1.2,1-4.1,1.6-5.4,1.8c0.8,2,3.3,8.1,4.1,9.5c1.1,1.9,0.9,3.8,0.9,3.9c0,0,0,0.1,0,0.1
			c-1.2,3.2-24.4,59.1-25.4,61.5C152.3,220.1,152.1,220.2,151.9,220.2z"/>
		<path class="st15" d="M178.6,214.8c0,0-0.1,0-0.1,0c-0.3-0.1-0.5-0.4-0.4-0.6c0-0.1,0.2-0.7,0.5-1.6c1.4-4.2,5.6-17.2,5.3-20.2
			c-0.4-3.7-2-13.1-2-13.2c0-0.3,0.1-0.6,0.4-0.6c0.3,0,0.6,0.1,0.6,0.4c0,0.1,1.6,9.5,2,13.2c0.3,3-2.9,13.2-5.3,20.7
			c-0.3,0.9-0.5,1.4-0.5,1.5C179,214.6,178.8,214.8,178.6,214.8z"/>
		<path class="st10" d="M140.9,215.7c0,0-8.6-54.1-10-63.1c-1.4-9-3.4-26.6-3.8-32.6c-0.4-6,0.2-12.2-0.6-12.4
			c-0.8-0.2-9.2,0.8-11.4,3.4c-2.2,2.6-9.8,23-10.2,25.2c-0.4,2.2,7,5.8,7,5.8s-3,11.2-3.6,14.4c-0.6,3.2,27,62.5,27,62.5
			L140.9,215.7z"/>
		<path class="st15" d="M125.9,224.1c-0.2,0-0.4-0.2-0.5-0.4c-1.9-6.6-18.2-64.2-17.6-67.4c0.5-2.9,2.9-11.9,3.5-14
			c-1.9-0.9-7.3-3.9-6.9-6.2c0.4-2.1,8-22.7,10.3-25.5c0.2-0.2,0.5-0.3,0.7-0.1c0.2,0.2,0.3,0.5,0.1,0.7c-2.1,2.5-9.7,22.7-10.1,25
			c-0.2,1.1,3.3,3.6,6.7,5.2c0.2,0.1,0.3,0.4,0.3,0.6c0,0.1-3,11.2-3.6,14.4c-0.4,2.3,10.3,41.3,17.6,66.9c0.1,0.3-0.1,0.6-0.4,0.7
			C126,224.1,126,224.1,125.9,224.1z"/>
		<path class="st19" d="M193.7,231.6h11.2c0,0-3.4-10.9-6.6-13.7c-3.2-2.8-11.5-6-15.2-6.6c-3.7-0.6-5.9-0.6-7.8,0.3
			c-1.9,0.9-1.6,2.7-1.6,2.7L193.7,231.6z"/>
		<ellipse class="st0" cx="155.1" cy="222.3" rx="38" ry="9.7"/>
		<path class="st19" d="M193.2,225.9c0,5.3-17,9.7-38,9.7s-38-4.3-38-9.7v-3.6c0,5.3,17,9.7,38,9.7s38-4.3,38-9.7V225.9z"/>
		<path class="st17" d="M193.2,225.9c0,5.3-17,9.7-38,9.7s-38-4.3-38-9.7v4.8c0,5.3,17,9.7,38,9.7s38-4.3,38-9.7V225.9z"/>
		<ellipse class="st13" cx="143" cy="224.7" rx="4.6" ry="1.7"/>
		<ellipse class="st13" cx="159.5" cy="219.4" rx="6.1" ry="2.1"/>
		<ellipse class="st13" cx="175.8" cy="224.6" rx="5.8" ry="2"/>
		<ellipse class="st27" cx="160.5" cy="151.1" rx="6.3" ry="2.6"/>
		<path class="st16" d="M157.9,177.7c-0.6-0.1-1.1-0.2-1.6-0.4c-1.5-0.5-2.4-1.3-2.4-2.2h0.5c0,0.6,0.8,1.3,2,1.7
			c0.5,0.2,1,0.3,1.6,0.4L157.9,177.7z"/>
		<path class="st16" d="M157.9,174.1c-0.6-0.1-1.1-0.2-1.6-0.4c-1.5-0.5-2.4-1.3-2.4-2.2h0.5c0,0.6,0.8,1.3,2,1.7
			c0.5,0.2,1,0.3,1.6,0.4L157.9,174.1z"/>
		<path class="st10" d="M88.2,158.7c0,0,6.4-3.2,15-6.1c7.9-2.6,17.7-4.8,26.3-4c0,0,1.2,16.5,1.6,25.2c0.1,3,0.1,5.1-0.1,5.2
			c-0.3,0.2-14.7,19.4-30.9,24c-16.2,4.7-19.4,2.9-19.4,2.9L88.2,158.7z"/>
		<path class="st15" d="M83.3,206.7c-2,0-2.8-0.3-2.9-0.4c-0.3-0.1-0.3-0.5-0.2-0.7c0.1-0.3,0.5-0.3,0.7-0.2c0,0,3.5,1.6,19-2.9
			c9.2-2.7,19.9-10.9,30.1-23.2c0.3-0.3,0.4-0.5,0.5-0.6c0-0.3,0.1-1.2,0-4.8c0-0.3,0.2-0.5,0.5-0.5c0.3,0,0.5,0.2,0.5,0.5
			c0.2,5,0,5.4-0.3,5.6c-0.1,0.1-0.2,0.3-0.5,0.6c-10.3,12.5-21.2,20.8-30.6,23.5C91.1,206.1,86,206.7,83.3,206.7z M131,179L131,179
			L131,179z"/>
		<path class="st15" d="M88.2,159.2c-0.2,0-0.4-0.1-0.5-0.3c-0.1-0.3,0-0.6,0.2-0.7c0.1,0,6.5-3.3,15.1-6.1
			c10.3-3.4,19.2-4.7,26.5-4c0.3,0,0.5,0.3,0.5,0.6c0,0.3-0.3,0.5-0.6,0.5c-7.1-0.7-15.9,0.6-26.1,4c-8.5,2.8-14.9,6-14.9,6
			C88.4,159.2,88.3,159.2,88.2,159.2z"/>
		<path class="st15" d="M121.4,188.7c-0.2,0-0.4-0.2-0.5-0.4c-2.2-8-4-37.4-3.7-38.1c0.1-0.3,0.4-0.4,0.7-0.3
			c0.3,0.1,0.4,0.3,0.4,0.6c-0.1,1.2,1.6,29.6,3.7,37.6c0.1,0.3-0.1,0.6-0.4,0.6C121.5,188.7,121.5,188.7,121.4,188.7z"/>
		<ellipse class="st15" cx="121.5" cy="153.8" rx="1" ry="2"/>
		<path class="st25" d="M166.8,151.1c0,1.4-2.8,2.6-6.3,2.6s-6.3-1.1-6.3-2.6v40.8c0,0.8,0.9,1.5,2.2,1.9c1.1,0.4,2.5,0.6,4.1,0.6
			c3.5,0,6.3-1.1,6.3-2.6V151.1z"/>
		<path class="st27" d="M162.6,205c-0.6,0.2-1.2,0.2-1.8,0.2c-1.1-0.1-2-0.4-2-0.4l1,9.4c0,0,0.8,0.4,1.8-0.1L162.6,205z"/>
		<g>
			<path class="st10" d="M160.5,188.8c-0.9,0-1.8-0.1-2.6-0.2c-0.6-0.1-1.2-0.2-1.7-0.4c-1.6-0.6-2.5-1.4-2.5-2.3h0.8
				c0,0.6,0.7,1.1,1.9,1.6c0.5,0.2,1,0.3,1.5,0.4c0.8,0.1,1.6,0.2,2.4,0.2V188.8z"/>
			<path class="st10" d="M157.9,185c-0.6-0.1-1.2-0.2-1.7-0.4c-1.6-0.6-2.5-1.4-2.5-2.3h0.8c0,0.6,0.7,1.1,1.9,1.6
				c0.5,0.2,1,0.3,1.5,0.4L157.9,185z"/>
			<path class="st10" d="M157.9,181.4c-0.6-0.1-1.2-0.2-1.7-0.4c-1.6-0.6-2.5-1.4-2.5-2.3h0.8c0,0.6,0.7,1.1,1.9,1.6
				c0.5,0.2,1,0.3,1.5,0.4L157.9,181.4z"/>
		</g>
		<path class="st25" d="M159.2,145.5l0.2,5.7c0,0,1.2,0.9,2.9,0l-0.2-5.9L159.2,145.5z"/>
		<path class="st27" d="M154.1,141.4c0,1.4,2.8,2.6,6.3,2.6s6.3-1.1,6.3-2.6v2.4c0,1.4-2.8,2.6-6.3,2.6s-6.3-1.1-6.3-2.6V141.4z"/>
		<ellipse class="st25" cx="160.5" cy="141.4" rx="6.3" ry="2.6"/>
		<path class="st3" d="M129.2,174.7c0,0,7.4-6,7.8-6.7c0.4-0.7-3.1-17.1-3.1-17.1s-5,1.2-6.3,1.3S129.2,174.7,129.2,174.7z"/>
		<path class="st19" d="M132.8,150.6c0,0,3.3,23.8,4.3,23.8s2.4-2.6,3.5-3.2c1-0.6-0.2,0.9,1.4,1.8c1.6,0.9,3-0.2,3.7,0.7
			c0.7,0.9,6.6,4.8,13.7,3.7c7.1-1.2,11.5-5,12.7-6.2c1.2-1.3,2.9-5.6,2.8-7.8c-0.1-2.2-0.9-2.6-0.9-2.6s0.9-1,0.8-3.3
			c-0.1-2.3-0.8-5-1.4-5.3c-0.6-0.3-0.6-0.3-0.6-0.3s1.8-2.8,1.2-5c-0.7-2.2-5.3-4.2-6.8-2.6c0,0,1.2,2.7-1.3,3.7
			c-2.4,1-11.2,0.6-11.8-0.2c-0.6-0.8-0.3-3.9,0.7-4.7c1-0.8,1.7-1.8,4.4-1.8c2.6,0,7.6,1,9.1-1.7c1.5-2.8,0.9-4.7-0.8-5.2
			c-1.7-0.5-4.8-1.6-7.4-2c-2.5-0.3-7.8-1.5-12.9,5.5C142,144.9,133.9,150.8,132.8,150.6z"/>
		<g>
			<path class="st17" d="M165.4,157.8c-0.2,0-0.3-0.1-0.4-0.3c-0.1-0.2,0-0.4,0.3-0.5c0,0,4.8-1.6,6.8-5c0.1-0.2,0.4-0.3,0.5-0.1
				c0.2,0.1,0.3,0.4,0.1,0.5c-2.1,3.7-7,5.3-7.2,5.4C165.5,157.8,165.5,157.8,165.4,157.8z"/>
			<path class="st17" d="M167.3,165.2c-0.2,0-0.3-0.1-0.4-0.3c0-0.2,0.1-0.4,0.3-0.5c0,0,4.5-1,6.3-3.9c0.1-0.2,0.4-0.2,0.5-0.1
				c0.2,0.1,0.2,0.4,0.1,0.5C172.1,164.1,167.6,165.2,167.3,165.2C167.3,165.2,167.3,165.2,167.3,165.2z"/>
		</g>
		<path class="st15" d="M166.8,191.9c0,1.4-2.8,2.6-6.3,2.6c-1.6,0-3-0.2-4.1-0.6c-1.4-0.5-2.2-1.2-2.2-1.9l4.7,12.9
			c0,0,0.9,0.3,2,0.3c0.6,0,1.2,0,1.8-0.2L166.8,191.9z"/>
	</g>
</g>
</svg>
